<svg xmlns="http://www.w3.org/2000/svg" width="31.111" height="22.15" viewBox="0 0 31.111 22.15">
  <g id="Element_1_" transform="translate(-0.005 0)">
    <path id="Path_11" data-name="Path 11" d="M31.05,21.25,23.24,5.562a.622.622,0,0,0-.524-.344.633.633,0,0,0-.557.285L19.905,9.026l-.729-1.419h0L15.434.339A.6.6,0,0,0,14.86,0a.624.624,0,0,0-.551.373L9.416,11.636,6.98,7.744a.623.623,0,0,0-1.1.083L.056,21.281a.623.623,0,0,0,.572.869H30.5a.62.62,0,0,0,.555-.9ZM14.928,2.076l3.141,6.1h0l.486.945L17.237,8.63a.621.621,0,0,0-.754.266l-1.22,2.06L13.785,8.67a.623.623,0,0,0-.41-.275.632.632,0,0,0-.112-.01.622.622,0,0,0-.368.121l-1.117.818ZM13.1,9.9l1.666,2.577a.653.653,0,0,0,.534.285.626.626,0,0,0,.524-.3l1.466-2.479,2.114.793L24.617,20.9H6.809l3.275-7.688h0l.709-1.632ZM6.553,9.406l2.263,3.616L5.457,20.9H1.574Zm19.464,11.5-5.453-10.6L22.616,7.1,29.49,20.9H26.017Z" transform="translate(0 0)"/>
  </g>
</svg>
