<svg xmlns="http://www.w3.org/2000/svg" width="24.088" height="20.859" viewBox="0 0 24.088 20.859">
  <g id="Group_519196" data-name="Group 519196" transform="translate(0 0)">
    <path id="Path_556" data-name="Path 556" d="M13.334,0h-2.58L0,18.626l1.288,2.234H22.8l1.291-2.234Z" fill="#f5bc1f"/>
    <g id="Group_519194" data-name="Group 519194" transform="translate(10.993 5.831)">
      <path id="Path_557" data-name="Path 557" d="M38.44,29.376l-.3-9,.15-.15h1.8l.15.15-.3,9-.15.133h-1.2ZM40.2,30.762l.037.112v1.182l-.037.133-.32.282-.1.037h-1.2l-.112-.037-.3-.282-.037-.133V30.874l.037-.112.3-.32.112-.037h1.2l.1.037Z" transform="translate(-38.14 -20.23)"/>
    </g>
  </g>
</svg>
