<svg id="Group_519001" data-name="Group 519001" xmlns="http://www.w3.org/2000/svg" width="29.707" height="28.45" viewBox="0 0 29.707 28.45">
  <path id="Path_12" data-name="Path 12" d="M27.109,9.011a.713.713,0,0,0-.027-.084A14.117,14.117,0,0,0,22.011,2.5,13.9,13.9,0,0,0,14.036,0,14.107,14.107,0,0,0,0,14.147c0,2.014.611,3.481,1.834,6.4.187.447.39.932.608,1.46a.669.669,0,0,0,.451.39c3.179.8,9.374,2.415,14.842,3.84,3.787.986,7.058,1.838,8.449,2.19a.577.577,0,0,0,.16.019.656.656,0,0,0,.546-.29l.275-.405A12.645,12.645,0,0,0,29.7,22.022a.439.439,0,0,0,0-.073C29.707,19.947,27.831,11.93,27.109,9.011Zm1.2,12.068L15.159,17.632l-.718-1.7a.664.664,0,0,0-.424-.378,2.916,2.916,0,0,1,.81-5.717H25.951C26.857,13.543,28.011,18.748,28.312,21.079Zm-2.235,5.931c-.008.008-.011.019-.019.027-1.567-.4-4.567-1.185-7.99-2.075-5.289-1.38-11.262-2.935-14.529-3.76l-.481-1.158C1.869,17.2,1.326,15.9,1.326,14.147A12.784,12.784,0,0,1,14.04,1.322,12.635,12.635,0,0,1,25.466,8.514H14.827a4.238,4.238,0,0,0-1.49,8.2l.726,1.727a.648.648,0,0,0,.439.382l13.8,3.615A12.283,12.283,0,0,1,26.077,27.009Z" fill="gray"/>
  <path id="Path_13" data-name="Path 13" d="M19.432,8.341a.661.661,0,0,0-.661-.661A11.169,11.169,0,0,0,7.67,18.892a.661.661,0,1,0,1.322,0A9.846,9.846,0,0,1,18.771,9,.661.661,0,0,0,19.432,8.341Z" transform="translate(-4.739 -4.745)" fill="gray"/>
  <path id="Path_14" data-name="Path 14" d="M47.512,30.8a.662.662,0,0,0-.917.176L44.5,34.08a.66.66,0,1,0,1.093.741l2.1-3.107A.658.658,0,0,0,47.512,30.8Z" transform="translate(-27.423 -18.959)" fill="gray"/>
  <path id="Path_15" data-name="Path 15" d="M57.722,30.8a.662.662,0,0,0-.917.176l-2.8,4.142a.66.66,0,1,0,1.093.741l2.8-4.142A.658.658,0,0,0,57.722,30.8Z" transform="translate(-33.299 -18.959)" fill="gray"/>
</svg>
