<svg xmlns="http://www.w3.org/2000/svg" width="60" height="33.857" viewBox="0 0 60 33.857">
  <g id="Group_519271" data-name="Group 519271" transform="translate(-510.898 -502.623)">
    <path id="Path_580" data-name="Path 580" d="M541.534,516.452a2.014,2.014,0,1,0,2.014,2.014A2.017,2.017,0,0,0,541.534,516.452Zm0,2.983a.969.969,0,1,1,.968-.969A.971.971,0,0,1,541.534,519.434Z" transform="translate(5.994 2.897)" fill="#fff"/>
    <path id="Path_581" data-name="Path 581" d="M530.57,516.452a2.014,2.014,0,1,0,2.016,2.014A2.016,2.016,0,0,0,530.57,516.452Zm0,2.983a.969.969,0,1,1,.97-.969A.971.971,0,0,1,530.57,519.434Z" transform="translate(3.698 2.897)" fill="#fff"/>
    <path id="Path_582" data-name="Path 582" d="M534.474,521.052a.585.585,0,1,0,.584.585A.586.586,0,0,0,534.474,521.052Z" transform="translate(4.816 3.86)" fill="#fff"/>
    <circle id="Ellipse_28" data-name="Ellipse 28" cx="0.585" cy="0.585" r="0.585" transform="translate(541.921 524.912)" fill="#fff"/>
    <path id="Path_583" data-name="Path 583" d="M553.25,525.313c.022,0,.045,0,.07,0,6.174-.828,6.428-8.572,6.429-8.65l.033-1.37-.936,1c-.9.957-2.71.754-4.465.558-.385-.042-.766-.086-1.132-.115a4.475,4.475,0,0,0-3.274,1.108,4.4,4.4,0,0,0-2.663-2.547c-.642-1.985-3.938-3.457-8.054-3.457s-7.411,1.472-8.055,3.457a4.4,4.4,0,0,0-2.662,2.546,4.454,4.454,0,0,0-3.274-1.107c-.366.029-.746.073-1.132.115-1.754.2-3.568.4-4.464-.558l-.937-1,.031,1.37c0,.079.255,7.822,6.431,8.65.024,0,.048,0,.07,0a.523.523,0,0,0,.07-1.041c-4.064-.544-5.139-4.593-5.424-6.57a8.978,8.978,0,0,0,4.341.185c.374-.041.743-.083,1.1-.112a3.719,3.719,0,0,1,2.92,1.258c-.012.134-.04.264-.04.4a4.4,4.4,0,0,0,4.4,4.4,4.343,4.343,0,0,0,1.969-.487c0,.068-.031.128-.028.2a2.3,2.3,0,0,0,1.619,2.123l.281-1.009a1.238,1.238,0,0,1-.854-1.165c-.045-.913.88-1.43,1.662-1.7a1.677,1.677,0,0,0,.891-1.009c.271-.576.445-.877,1.09-.88s.818.3,1.09.88a1.668,1.668,0,0,0,.889,1.007c.784.273,1.708.79,1.664,1.7a1.242,1.242,0,0,1-.855,1.166l.143.5.137.506a2.3,2.3,0,0,0,1.622-2.124c0-.069-.025-.128-.028-.2a4.343,4.343,0,0,0,1.969.487,4.4,4.4,0,0,0,4.4-4.4c0-.138-.028-.268-.041-.4a3.586,3.586,0,0,1,2.92-1.254c.357.029.727.071,1.1.112a8.969,8.969,0,0,0,4.34-.185c-.284,1.975-1.362,6.026-5.423,6.57a.523.523,0,0,0,.07,1.041Zm-20.622-2.528a3.351,3.351,0,1,1,3.353-3.353A3.356,3.356,0,0,1,532.627,522.785Zm9.127-1.9c-.063-.024-.109-.059-.174-.082s-.2-.291-.287-.467a2.121,2.121,0,0,0-2.027-1.477h-.017a2.121,2.121,0,0,0-2.028,1.477c-.083.175-.209.441-.288.469s-.11.056-.173.08a4.327,4.327,0,0,0,.265-1.448,4.4,4.4,0,0,0-4.4-4.4c-.035,0-.067.01-.1.01.928-1.149,3.424-2.165,6.732-2.165s5.8,1.016,6.731,2.165c-.034,0-.067-.01-.1-.01a4.4,4.4,0,0,0-4.4,4.4A4.332,4.332,0,0,0,541.754,520.88Zm4.134,1.9a3.351,3.351,0,1,1,3.35-3.353A3.357,3.357,0,0,1,545.888,522.785Z" transform="translate(1.641 1.93)" fill="#fff"/>
    <path id="Path_584" data-name="Path 584" d="M566.33,515.272a1.509,1.509,0,0,0-2.175,1.6.524.524,0,1,0,1.038-.146.469.469,0,0,1,.174-.487.483.483,0,0,1,.489-.038.976.976,0,0,1,.379.9,2.669,2.669,0,0,1-1.672,2.381l-.746.3.57.564a1.185,1.185,0,0,1,.223.853,7.678,7.678,0,0,1-1.471.369l-.439.071v.443c-.022,4.239-3.287,4.489-3.426,4.5l-.221.015-.144.164c-.025.031-2.675,3.029-5.872,2.5a4.53,4.53,0,0,1-3.7-2.684,2.4,2.4,0,0,0-.752-1.517,2.163,2.163,0,0,0-1.814-.369c-.053.008-.092.04-.143.052a2,2,0,0,0-1.338.574,1,1,0,0,1-1.376,0,2.018,2.018,0,0,0-2.854,0,.978.978,0,0,1-1.376,0,2.018,2.018,0,0,0-2.856,0,1,1,0,0,1-1.376,0,1.989,1.989,0,0,0-1.334-.573c-.052-.012-.09-.045-.144-.053a2.179,2.179,0,0,0-1.818.369,2.4,2.4,0,0,0-.749,1.509,4.526,4.526,0,0,1-3.706,2.691c-3.185.524-5.848-2.471-5.873-2.5l-.146-.167-.218-.012c-.139-.01-3.4-.26-3.427-4.5v-.443l-.438-.071a9.708,9.708,0,0,1-1.469-.347,1.21,1.21,0,0,1,.22-.874l.576-.57-.755-.29a2.69,2.69,0,0,1-1.669-2.381.978.978,0,0,1,.379-.9.463.463,0,0,1,.664.525.523.523,0,1,0,1.036.146,1.508,1.508,0,0,0-2.173-1.6,1.949,1.949,0,0,0-.951,1.824,3.537,3.537,0,0,0,1.78,3.083,2.747,2.747,0,0,0-.117,1.413l.081.192c.08.117.31.456,1.8.745.224,4.158,3.3,4.936,4.175,5.072a8.607,8.607,0,0,0,5.751,2.771,6.269,6.269,0,0,0,4.454-1.883c.007.075.012.152.019.227a5.044,5.044,0,0,1-.056,1.957,6.8,6.8,0,0,1-.566,1.27c-.379.714-.652,1.23-.323,1.654a.706.706,0,0,0,.6.267,1.553,1.553,0,0,0,.348-.045c1.737-.417,2.931-1.773,3.648-4.146h10.643c.715,2.373,1.908,3.729,3.645,4.145a1.524,1.524,0,0,0,.351.046.714.714,0,0,0,.6-.267c.328-.424.056-.941-.323-1.654a6.736,6.736,0,0,1-.567-1.27,5.07,5.07,0,0,1-.056-1.957c.007-.074.013-.151.021-.226a6.272,6.272,0,0,0,4.454,1.882,8.607,8.607,0,0,0,5.75-2.771c.873-.137,3.951-.914,4.175-5.072,1.494-.289,1.722-.627,1.8-.744l.081-.194a2.71,2.71,0,0,0-.118-1.413,3.537,3.537,0,0,0,1.783-3.083A1.951,1.951,0,0,0,566.33,515.272Zm-32.273,14.057c-.525,1.752-1.312,2.841-2.472,3.318l.112-.215a7.289,7.289,0,0,0,.653-1.489,6.034,6.034,0,0,0,.086-2.333,9.333,9.333,0,0,1-.068-1.191,2.124,2.124,0,0,1,.45-1.55.9.9,0,0,1,.6-.174,2.4,2.4,0,0,1,.383.034.665.665,0,0,1,.5.3C534.492,526.327,534.705,527.149,534.057,529.329Zm2.158-.7a1.147,1.147,0,0,1,1.888,0Zm3.206,0a1.144,1.144,0,0,1,1.887,0Zm3.2,0a1.148,1.148,0,0,1,1.889,0Zm.945-1.6a2.1,2.1,0,0,1-3.205,0,2.1,2.1,0,0,1-3.206,0,2.119,2.119,0,0,0-1.716.88,5.481,5.481,0,0,0,.052-1.381,2,2,0,0,0,2.066-.467.981.981,0,0,1,1.378,0,2.018,2.018,0,0,0,2.854,0,1,1,0,0,1,1.375,0,1.921,1.921,0,0,0,2.068.467,5.416,5.416,0,0,0,.051,1.381A2.122,2.122,0,0,0,543.569,527.027Zm3.1,2.3c-.651-2.181-.435-3-.25-3.3a.67.67,0,0,1,.507-.3,2.379,2.379,0,0,1,.383-.034.9.9,0,0,1,.6.174,2.127,2.127,0,0,1,.451,1.55,9.326,9.326,0,0,1-.069,1.191,6.078,6.078,0,0,0,.086,2.333,7.414,7.414,0,0,0,.653,1.489c.039.074.082.155.125.237C548.021,532.224,547.207,531.127,546.672,529.329Z" transform="translate(0.534 2.616)" fill="#fff"/>
    <path id="Path_585" data-name="Path 585" d="M570.7,510.459a3.522,3.522,0,0,0-2.413-2.178,3.021,3.021,0,0,0-2.65.5,4.69,4.69,0,0,0-1.131-3.3,3.982,3.982,0,0,0-3.47-1.19,3.579,3.579,0,0,0-3.032,3.1,3.717,3.717,0,0,0-.035.428,3.682,3.682,0,0,0-2.364-.484,3.146,3.146,0,0,0-2.632,2.467,4.234,4.234,0,0,0-.154-.434l-.155-.35-.382.042a4.5,4.5,0,0,0-2.015.733,7.137,7.137,0,0,0-.6-2.039l-.2-.4-.424.131a4.354,4.354,0,0,0-1.627,1.022,11.961,11.961,0,0,0-.443-1.727l-.171-.48-.485.156a5.349,5.349,0,0,0-1.932,1.124,10.541,10.541,0,0,0-3.157-4.689l-.33-.269-.33.269a10.541,10.541,0,0,0-3.157,4.689,5.344,5.344,0,0,0-1.933-1.124l-.485-.156-.169.48a11.787,11.787,0,0,0-.443,1.727,4.361,4.361,0,0,0-1.63-1.022l-.423-.131-.2.4a7.257,7.257,0,0,0-.6,2.039,4.508,4.508,0,0,0-2.016-.733l-.381-.042-.155.35a3.937,3.937,0,0,0-.154.434,3.146,3.146,0,0,0-2.632-2.467,3.687,3.687,0,0,0-2.367.485,3.732,3.732,0,0,0-.035-.429,3.575,3.575,0,0,0-3.032-3.1,4,4,0,0,0-3.468,1.189,4.693,4.693,0,0,0-1.132,3.3,3.023,3.023,0,0,0-2.649-.5,3.521,3.521,0,0,0-2.413,2.178,4.647,4.647,0,0,0,.824,4.157c1.808,2.662,6.923,3.777,7.138,3.823a.588.588,0,0,0,.11.011.523.523,0,0,0,.109-1.035c-.049-.011-4.916-1.07-6.492-3.387a3.663,3.663,0,0,1-.7-3.22,2.513,2.513,0,0,1,1.728-1.526,2.153,2.153,0,0,1,2.373,1.022,1.8,1.8,0,0,1-.156,2.246,1.106,1.106,0,0,1-1.473.21.656.656,0,0,1-.294-.806.523.523,0,1,0-.943-.452,1.653,1.653,0,0,0,.647,2.123,2.152,2.152,0,0,0,2.83-.363,2.9,2.9,0,0,0,.53-.793,23.773,23.773,0,0,0,5.509,5.369.52.52,0,0,0,.3.092.523.523,0,0,0,.3-.954c-.056-.037-5.472-3.813-6.1-7a4.265,4.265,0,0,1,.727-3.782,2.943,2.943,0,0,1,2.581-.859,2.547,2.547,0,0,1,2.114,2.213,2.147,2.147,0,0,1-1.224,2.386,1.348,1.348,0,0,1-1.749-.471.8.8,0,0,1,.068-1.084.524.524,0,0,0-.689-.79,1.829,1.829,0,0,0-.26,2.437,2.392,2.392,0,0,0,3.057.862c.071-.033.133-.074.2-.11a6.2,6.2,0,0,0,.08,1.756c.628,3.206,4.972,5.378,5.157,5.47a.527.527,0,0,0,.231.052.523.523,0,0,0,.232-.992c-.041-.021-4.064-2.035-4.592-4.733a3.645,3.645,0,0,1,.618-3.234,2.517,2.517,0,0,1,2.189-.726,2.15,2.15,0,0,1,1.78,1.872,1.8,1.8,0,0,1-1.027,2,1.108,1.108,0,0,1-1.437-.386.654.654,0,0,1,.046-.853.524.524,0,1,0-.689-.789,1.654,1.654,0,0,0-.239,2.2,2.154,2.154,0,0,0,2.745.779,2.774,2.774,0,0,0,1.318-1.194,7.209,7.209,0,0,0,1.644,4.13l.38.475.414-.445a14.081,14.081,0,0,1,19.772,0l.415.444.379-.474a7.215,7.215,0,0,0,1.644-4.13,2.768,2.768,0,0,0,1.315,1.193,2.153,2.153,0,0,0,2.748-.778,1.652,1.652,0,0,0-.239-2.2.524.524,0,1,0-.689.789.653.653,0,0,1,.047.853,1.1,1.1,0,0,1-1.44.385,1.8,1.8,0,0,1-1.024-2,2.152,2.152,0,0,1,1.781-1.873,2.518,2.518,0,0,1,2.189.726,3.653,3.653,0,0,1,.617,3.234c-.527,2.7-4.551,4.712-4.591,4.733a.524.524,0,0,0,.463.94c.185-.092,4.529-2.264,5.156-5.47a6.176,6.176,0,0,0,.08-1.754c.068.035.129.077.2.109a2.394,2.394,0,0,0,3.059-.865,1.828,1.828,0,0,0-.261-2.436.525.525,0,0,0-.691.79.8.8,0,0,1,.069,1.082,1.349,1.349,0,0,1-1.75.472,2.151,2.151,0,0,1-1.224-2.384,2.55,2.55,0,0,1,2.114-2.216,2.948,2.948,0,0,1,2.582.859,4.266,4.266,0,0,1,.728,3.782c-.624,3.182-6.042,6.963-6.1,7a.523.523,0,0,0,.3.954.517.517,0,0,0,.3-.092,23.79,23.79,0,0,0,5.51-5.369,2.9,2.9,0,0,0,.53.793,2.154,2.154,0,0,0,2.831.363,1.654,1.654,0,0,0,.647-2.123.523.523,0,0,0-.943.452.662.662,0,0,1-.294.806,1.109,1.109,0,0,1-1.474-.21,1.8,1.8,0,0,1-.157-2.243,2.151,2.151,0,0,1,2.375-1.024,2.511,2.511,0,0,1,1.727,1.526,3.663,3.663,0,0,1-.7,3.22c-1.574,2.313-6.444,3.376-6.494,3.387a.524.524,0,0,0,.11,1.035.569.569,0,0,0,.109-.011c.216-.046,5.33-1.161,7.139-3.823A4.651,4.651,0,0,0,570.7,510.459Zm-19.6,4.566a15.141,15.141,0,0,0-20.4,0,5.786,5.786,0,0,1-.891-4.856,3.226,3.226,0,0,1,1.763,1.039l.991,1.318-.048-1.649a6.208,6.208,0,0,1,.37-2.2,5.428,5.428,0,0,1,1.492,1.392l1.02,1.448-.069-1.769a7.519,7.519,0,0,1,.327-2.1,4.322,4.322,0,0,1,1.621,1.328l.772,1.155.184-1.374A8.777,8.777,0,0,1,540.9,504a8.742,8.742,0,0,1,2.67,4.757l.186,1.393.77-1.178a4.243,4.243,0,0,1,1.62-1.326,7.468,7.468,0,0,1,.325,2.1l-.067,1.769,1.018-1.448a5.417,5.417,0,0,1,1.491-1.392,6.208,6.208,0,0,1,.37,2.2l-.045,1.611.985-1.278a3.242,3.242,0,0,1,1.766-1.041A5.782,5.782,0,0,1,551.1,515.025Z" transform="translate(0 0)" fill="#fff"/>
    <path id="Path_586" data-name="Path 586" d="M525.9,518.638a.523.523,0,0,0-.589-.865c-2.023,1.379-1.362,4.3-1.333,4.427a.523.523,0,0,0,.508.4.5.5,0,0,0,.12-.013.523.523,0,0,0,.392-.629C524.99,521.936,524.473,519.612,525.9,518.638Z" transform="translate(2.713 3.155)" fill="#fff"/>
    <path id="Path_587" data-name="Path 587" d="M524.23,518.3a.524.524,0,0,0-.59-.865c-1.858,1.264-1.252,3.939-1.226,4.052a.525.525,0,0,0,.509.4.593.593,0,0,0,.12-.013.523.523,0,0,0,.391-.628C523.429,521.229,522.967,519.159,524.23,518.3Z" transform="translate(2.388 3.084)" fill="#fff"/>
    <path id="Path_588" data-name="Path 588" d="M547.195,522.59a.513.513,0,0,0,.12.013.522.522,0,0,0,.508-.4c.03-.123.692-3.048-1.332-4.427a.523.523,0,0,0-.59.865c1.427.974.908,3.3.9,3.322A.524.524,0,0,0,547.195,522.59Z" transform="translate(7.284 3.154)" fill="#fff"/>
    <path id="Path_589" data-name="Path 589" d="M548.737,521.878a.565.565,0,0,0,.12.013.523.523,0,0,0,.508-.4c.027-.113.634-2.788-1.224-4.052a.524.524,0,1,0-.59.865c1.26.859.8,2.928.795,2.948A.524.524,0,0,0,548.737,521.878Z" transform="translate(7.629 3.084)" fill="#fff"/>
  </g>
</svg>
