<svg xmlns="http://www.w3.org/2000/svg" width="42.399" height="46.304" viewBox="0 0 42.399 46.304">
  <g id="Group_519272" data-name="Group 519272" transform="translate(-474.179 -535.679)">
    <path id="Path_590" data-name="Path 590" d="M513.637,576.158a3.951,3.951,0,0,0,1.406-3.068v-.663h-3.806a4.172,4.172,0,0,0-.864-2.656,2.641,2.641,0,0,0-1.5-.84v-2.263h-1.642a1.394,1.394,0,0,0-.133-.783,8.736,8.736,0,0,1-.584-1.8c-.066-.269-.127-.514-.19-.722a45.322,45.322,0,0,1-.928-6.173,4.018,4.018,0,0,0-2.954-3.73c-.125-.525-.461-1.961-.636-2.9h0c-.31-1.647-1.544-1.638-2.332-1.637H498.2c-.139-2.257-.7-11.427-.725-11.754v0c-.029-.368-.114-1.49-1.092-1.49h-2.018c-.652,0-1.019.5-1.091,1.492-.024.327-.587,9.5-.725,11.754h-1.382a1.9,1.9,0,0,0-2.222,1.637c-.175.936-.513,2.373-.637,2.9a4.014,4.014,0,0,0-2.953,3.729,45.092,45.092,0,0,1-.926,6.173c-.064.208-.125.452-.191.72a8.661,8.661,0,0,1-.584,1.8,1.39,1.39,0,0,0-.133.782h-1.643v2.263a2.641,2.641,0,0,0-1.5.84,4.169,4.169,0,0,0-.861,2.656h-3.806v.663a3.956,3.956,0,0,0,1.4,3.068,5.778,5.778,0,0,0-2.941,5.163v.663h42.4v-.663A5.78,5.78,0,0,0,513.637,576.158ZM494.6,537.267c.008-.115.017-.2.025-.262h.751v0h.75c.009.064.02.147.028.262.023.319.555,8.982.713,11.537h-2.982C494.046,546.247,494.577,537.585,494.6,537.267Zm10.155,25.159-1.847-1.847,1.394-1.394C504.482,560.644,504.624,561.672,504.756,562.425Zm-15.014-9.258c.159-.686.379-1.664.51-2.359.1-.545.228-.557,1.031-.558h8.31c.661-.025.81.012.913.557.13.7.35,1.672.509,2.36H500.4c-.27-.007-.518-.005-.726,0l-.277,0-8.322,0c-.2,0-.432,0-.686,0Zm.909,1.325h9.739c1.737.048,3.415.489,3.692,2.852l.02.167-3.066,3.067,4.217,4.215.065-.064a8.558,8.558,0,0,0,.6,1.748l-.021.074H495.379l-10.535-.074a8.558,8.558,0,0,0,.6-1.747l.064.062,4.215-4.215-3.065-3.068.019-.166C486.968,554.853,488.82,554.51,490.651,554.492ZM486,562.424c.134-.753.274-1.781.453-3.24l1.393,1.394Zm-4.624,8.224a1.467,1.467,0,0,1,1.167-.452h.663v-2.2h24.341v2.2h.663a1.465,1.465,0,0,1,1.167.452,2.833,2.833,0,0,1,.535,1.7h-29.07A2.841,2.841,0,0,1,481.377,570.648Zm32.265,3.1a2.184,2.184,0,0,1-2.009,1.824H479.123a2.181,2.181,0,0,1-2.008-1.824Zm-38.1,6.905a3.985,3.985,0,0,1,3.691-3.717h32.281a3.985,3.985,0,0,1,3.692,3.717Z" transform="translate(0)" fill="#fff"/>
    <path id="Path_591" data-name="Path 591" d="M495.041,555.427l-3.905-3.907-3.907,3.907,3.907,3.905Zm-3.905-2.033,2.032,2.033-2.032,2.031-2.033-2.031Z" transform="translate(4.244 5.151)" fill="#fff"/>
  </g>
</svg>
