<svg xmlns="http://www.w3.org/2000/svg" width="29.091" height="39.177" viewBox="0 0 29.091 39.177">
  <g id="Group_519273" data-name="Group 519273" transform="translate(-468.009 -407.901)">
    <path id="Path_592" data-name="Path 592" d="M497.1,436.326v-7.8l-2.584,2.583h-.787v-2.868l2.067-4.289h-3.06v-2.189l1.288-4.146H489.5l1.52-3.688h-3.626l-.779-2.456h-1.452V407.9h-5.214v3.572H478.5l-.779,2.456H474.09l1.521,3.688h-4.528l1.289,4.146v2.189h-3.06l2.066,4.289v2.868h-.787l-2.583-2.583v7.8h2.211V442.1l-2.211,1.281v3.7h11.266v-10.5h6.559v10.5H497.1v-3.7L494.89,442.1v-5.773Zm-16.033-27.305h2.974V411.4h-2.974Zm-1.75,3.572h6.475l.424,1.336h-7.324Zm-1.956,2.455h11.983l-.881,2.135H476.644l-.881-2.135ZM489.82,431.11l-3.281-1.17v-1.265h6.071v2.435Zm-6.625-2.366-.64-.229-.642.229v-2.121H483.2Zm-2.4-3.241v3.642l-1.1.393v-5.086h5.726v5.086l-1.1-.393V425.5Zm12.025,2.051h-6.28v-2.483h7.475Zm-.314-8.818-.772,2.483H473.376l-.772-2.483Zm-19.012,3.6h18.124v1.612h-5.077v-.621h-7.967v.621h-5.079Zm5.079,2.732v2.483H472.29l-1.2-2.483Zm-6.073,3.6h6.073v1.265l-3.283,1.17H472.5Zm23.481,15.351v1.932h-9.025v-10.5h-8.8v10.5h-9.026v-1.932l2.211-1.282v-7.537h-2.211v-3.975l1,1h5.259l7.168-2.525,6.98,2.492,5.445.033,1-1v3.975H493.77v7.537Z" transform="translate(0 0)" fill="#fff"/>
    <path id="Path_593" data-name="Path 593" d="M471.513,427.949H473.5V434.2h-1.985v1.12h3.105v-8.493h-3.105Z" transform="translate(1.572 8.492)" fill="#fff"/>
    <path id="Path_594" data-name="Path 594" d="M482.443,435.322h3.105V434.2h-1.985v-6.253h1.985v-1.12h-3.105Z" transform="translate(6.475 8.492)" fill="#fff"/>
  </g>
</svg>
