<svg xmlns="http://www.w3.org/2000/svg" width="44.965" height="35.586" viewBox="0 0 44.965 35.586">
  <g id="Group_519275" data-name="Group 519275" transform="translate(-489.091 -996.781)">
    <g id="Group_519275-2" data-name="Group 519275" transform="translate(489.091 1003.647)">
      <path id="Path_595" data-name="Path 595" d="M493.306,1005.882a.852.852,0,0,0-.513.26,14.969,14.969,0,0,0-3.7,8.79c0,.032,0,.065,0,.107a4.177,4.177,0,0,0,3.528,4.107v1.592a.741.741,0,1,0,1.483,0v-1.592a4.169,4.169,0,0,0,3.526-4.1.587.587,0,0,0,0-.106,14.444,14.444,0,0,0-3.706-8.8A.76.76,0,0,0,493.306,1005.882Zm.08,11.878a2.75,2.75,0,0,1-2.812-2.8,13.216,13.216,0,0,1,2.793-7.156,12.657,12.657,0,0,1,2.784,7.134A2.744,2.744,0,0,1,493.387,1017.761Z" transform="translate(-489.091 -1001.126)" fill="#fff"/>
      <path id="Path_596" data-name="Path 596" d="M510.745,1013.6h-2.591a.741.741,0,1,0,0,1.483h2.591a.741.741,0,0,0,0-1.483Z" transform="translate(-484.016 -998.989)" fill="#fff"/>
      <path id="Path_597" data-name="Path 597" d="M509.9,1016.214a.743.743,0,0,0,.741.742h3.531a.741.741,0,0,0,0-1.482h-3.531A.742.742,0,0,0,509.9,1016.214Z" transform="translate(-483.327 -998.469)" fill="#fff"/>
      <path id="Path_598" data-name="Path 598" d="M515.936,1014.369a.741.741,0,1,0,0-1.483h-3.141a.741.741,0,1,0,0,1.483Z" transform="translate(-482.73 -999.186)" fill="#fff"/>
      <path id="Path_599" data-name="Path 599" d="M508.915,1017.78a.742.742,0,0,0,0,1.484h2.2a.742.742,0,0,0,0-1.484Z" transform="translate(-483.805 -997.83)" fill="#fff"/>
      <path id="Path_600" data-name="Path 600" d="M527.1,1007.908a.738.738,0,0,0,.863-.169l3.983-4.339a.741.741,0,0,0-.043-1.047.741.741,0,0,0-1.047.043l-3.615,3.938-3.62-1.71a.738.738,0,0,0-.81.118l-9.8,8.75h-4.523a.741.741,0,0,0,0,1.483h15.522a3.7,3.7,0,0,1,.778,2.207c0,2.1-1.918,3.975-5.7,5.569a34.864,34.864,0,0,1-12.567,2.465,7.023,7.023,0,0,0,1.054-3.233.667.667,0,0,0,0-.114,21.056,21.056,0,0,0-5.224-12.384.763.763,0,0,0-1.136,0,21.051,21.051,0,0,0-5.224,12.385.684.684,0,0,0,0,.1c.273,3.251,1.972,5.149,5.05,5.646v2.52a.741.741,0,0,0,1.483,0v-2.521a6.5,6.5,0,0,0,2.505-.936.726.726,0,0,0,.258.052h.006a37.367,37.367,0,0,0,14.37-2.618c4.385-1.845,6.608-4.178,6.608-6.933a4.981,4.981,0,0,0-.541-2.207h2.82a.741.741,0,1,0,0-1.483H524.53a.733.733,0,0,0-.372,0h-8.917l8.192-7.317Zm-25.293,18.312c-2.714-.258-4.091-1.631-4.334-4.321a19.3,19.3,0,0,1,4.31-10.759,19.3,19.3,0,0,1,4.311,10.734C505.82,1024.581,504.442,1025.961,501.809,1026.22Z" transform="translate(-487.179 -1002.158)" fill="#fff"/>
    </g>
    <g id="Group_519276" data-name="Group 519276" transform="translate(505.166 996.781)">
      <path id="Path_601" data-name="Path 601" d="M504.01,1002.687a3.572,3.572,0,1,0,3.572-3.572,3.576,3.576,0,0,0-3.572,3.572m3.572-2.382a2.382,2.382,0,1,1-2.382,2.382,2.385,2.385,0,0,1,2.382-2.382" transform="translate(-501.033 -996.134)" fill="#fff"/>
      <path id="Path_602" data-name="Path 602" d="M512.215,1001.911l-.365-.013-.825.018a5.4,5.4,0,0,1-.1,1.046l1.168.23a6.57,6.57,0,0,0,.124-1.281" transform="translate(-499.119 -995.363)" fill="#fff"/>
      <path id="Path_603" data-name="Path 603" d="M509.985,997.769a6.6,6.6,0,0,0-1.133-.6l-.453,1.1a5.278,5.278,0,0,1,.927.492Z" transform="translate(-499.818 -996.674)" fill="#fff"/>
      <path id="Path_604" data-name="Path 604" d="M509.763,999.117a5.406,5.406,0,0,1,.669.81l.987-.667a6.571,6.571,0,0,0-.817-.987Z" transform="translate(-499.44 -996.367)" fill="#fff"/>
      <path id="Path_605" data-name="Path 605" d="M506.058,996.884a6.538,6.538,0,0,0-1.228.377l.46,1.1a5.284,5.284,0,0,1,1-.306Z" transform="translate(-500.806 -996.752)" fill="#fff"/>
      <path id="Path_606" data-name="Path 606" d="M510.3,1004.443l.99.661a6.421,6.421,0,0,0,.605-1.131l-1.1-.456a5.33,5.33,0,0,1-.5.926" transform="translate(-499.292 -994.915)" fill="#fff"/>
      <path id="Path_607" data-name="Path 607" d="M507.839,998.073l.227-1.168a5.134,5.134,0,0,0-1.263-.12l-.008.335.014.855a5.434,5.434,0,0,1,1.029.1" transform="translate(-500.262 -996.781)" fill="#fff"/>
      <path id="Path_608" data-name="Path 608" d="M510.678,1000.391a5.384,5.384,0,0,1,.309,1l1.167-.236a6.543,6.543,0,0,0-.378-1.226Z" transform="translate(-499.186 -995.908)" fill="#fff"/>
      <path id="Path_609" data-name="Path 609" d="M509.8,1006.533a6.584,6.584,0,0,0,.991-.815l-.843-.842a5.357,5.357,0,0,1-.811.668Z" transform="translate(-499.612 -994.538)" fill="#fff"/>
      <path id="Path_610" data-name="Path 610" d="M502.063,1000.206l1.1.453a5.4,5.4,0,0,1,.494-.926l-.991-.66a6.6,6.6,0,0,0-.6,1.133" transform="translate(-501.573 -996.146)" fill="#fff"/>
      <path id="Path_611" data-name="Path 611" d="M504.2,1005.06a5.334,5.334,0,0,1-.668-.811l-.988.664a6.642,6.642,0,0,0,.815.99Z" transform="translate(-501.438 -994.712)" fill="#fff"/>
      <path id="Path_612" data-name="Path 612" d="M503.171,998.472l.844.84a5.4,5.4,0,0,1,.81-.669l-.664-.987a6.66,6.66,0,0,0-.99.816" transform="translate(-501.266 -996.538)" fill="#fff"/>
      <path id="Path_613" data-name="Path 613" d="M501.679,1002.186v.013l1.19-.013a5.39,5.39,0,0,1,.1-1.034l-1.168-.229a6.635,6.635,0,0,0-.121,1.263" transform="translate(-501.679 -995.633)" fill="#fff"/>
      <path id="Path_614" data-name="Path 614" d="M501.778,1002.973a6.563,6.563,0,0,0,.375,1.228l1.1-.458a5.3,5.3,0,0,1-.305-1Z" transform="translate(-501.652 -995.13)" fill="#fff"/>
      <path id="Path_615" data-name="Path 615" d="M503.964,1006.395a6.512,6.512,0,0,0,1.131.605l.456-1.1a5.338,5.338,0,0,1-.927-.494Z" transform="translate(-501.046 -994.392)" fill="#fff"/>
      <path id="Path_616" data-name="Path 616" d="M507.862,1007.262a6.582,6.582,0,0,0,1.228-.373l-.457-1.1a5.32,5.32,0,0,1-1,.305Z" transform="translate(-500.031 -994.286)" fill="#fff"/>
      <path id="Path_617" data-name="Path 617" d="M505.813,1007.2a6.6,6.6,0,0,0,1.269.123h.006l-.006-1.19a5.431,5.431,0,0,1-1.039-.1Z" transform="translate(-500.534 -994.219)" fill="#fff"/>
    </g>
  </g>
</svg>
