<?xml version="1.0" encoding="utf-8"?>
<svg id="master-artboard" viewBox="0 0 1177.5799560546875 574.9011840820312" xmlns="http://www.w3.org/2000/svg" width="1177.5799560546875px" height="574.9011840820312px" version="1.1" style="shape-rendering:geometricPrecision; text-rendering:geometricPrecision; image-rendering:optimizeQuality; fill-rule:evenodd; clip-rule:evenodd"><rect id="ee-background" x="0" y="0" width="1177.5799560546875" height="574.9011840820312" style="fill: white; fill-opacity: 0; pointer-events: none;"/><g transform="matrix(8.75, 0, 0, 8.75, -110.94734954833984, -64.64726448059082)"><g>
	<g id="Group_519271" transform="translate(-510.898 -502.623)">
		<path id="Path_580" class="st0" d="M597.5,527.5c-1.1,0-2,0.9-2,2s0.9,2,2,2s2-0.9,2-2c0,0,0,0,0,0&#10;&#9;&#9;&#9;C599.5,528.4,598.6,527.5,597.5,527.5z M597.5,530.5c-0.5,0-1-0.4-1-1s0.4-1,1-1s1,0.4,1,1c0,0,0,0,0,0&#10;&#9;&#9;&#9;C598.5,530,598.1,530.5,597.5,530.5L597.5,530.5z" style="fill: rgb(0, 0, 0);"/>
		<path id="Path_581" class="st0" d="M584.3,527.5c-1.1,0-2,0.9-2,2s0.9,2,2,2c1.1,0,2-0.9,2-2C586.3,528.4,585.4,527.5,584.3,527.5&#10;&#9;&#9;&#9;z M584.3,530.5c-0.5,0-1-0.4-1-1s0.4-1,1-1c0.5,0,1,0.4,1,1C585.2,530,584.8,530.5,584.3,530.5L584.3,530.5z" style="fill: rgb(0, 0, 0);"/>
		<path id="Path_582" class="st0" d="M589.3,533c-0.3,0-0.6,0.3-0.6,0.6s0.3,0.6,0.6,0.6c0.3,0,0.6-0.3,0.6-0.6c0,0,0,0,0,0&#10;&#9;&#9;&#9;C589.9,533.3,589.6,533.1,589.3,533z" style="fill: rgb(0, 0, 0);"/>
		<path d="M 593.1 533.599976 A 0.6 0.6 0 0 1 592.5 534.199976 A 0.6 0.6 0 0 1 591.9 533.599976 A 0.6 0.6 0 0 1 592.5 532.999976 A 0.6 0.6 0 0 1 593.1 533.599976 Z" id="Ellipse_28" class="st0" style="fill: rgb(0, 0, 0);"/>
		<path id="Path_583" class="st0" d="M604.9,535.4C604.9,535.4,604.9,535.4,604.9,535.4c6.2-0.8,6.5-8.6,6.5-8.7l0-1.4l-0.9,1&#10;&#9;&#9;&#9;c-0.9,1-2.7,0.8-4.5,0.6c-0.4,0-0.8-0.1-1.1-0.1c-1.2-0.1-2.4,0.3-3.3,1.1c-0.5-1.2-1.4-2.1-2.7-2.5c-0.6-2-3.9-3.5-8.1-3.5&#10;&#9;&#9;&#9;s-7.4,1.5-8.1,3.5c-1.2,0.4-2.2,1.3-2.7,2.5c-0.9-0.8-2.1-1.2-3.3-1.1c-0.4,0-0.7,0.1-1.1,0.1c-1.8,0.2-3.6,0.4-4.5-0.6l-0.9-1&#10;&#9;&#9;&#9;l0,1.4c0,0.1,0.3,7.8,6.4,8.7c0,0,0,0,0.1,0c0.3,0,0.5-0.2,0.5-0.5c0-0.3-0.2-0.5-0.5-0.5c-4.1-0.5-5.1-4.6-5.4-6.6&#10;&#9;&#9;&#9;c1.4,0.4,2.9,0.5,4.3,0.2c0.4,0,0.7-0.1,1.1-0.1c1.1,0,2.2,0.4,2.9,1.3c0,0.1,0,0.3,0,0.4c0,2.4,2,4.4,4.4,4.4h0&#10;&#9;&#9;&#9;c0.7,0,1.4-0.2,2-0.5c0,0.1,0,0.1,0,0.2c0,1,0.7,1.8,1.6,2.1l0.3-1c-0.5-0.2-0.8-0.6-0.9-1.2c0-0.9,0.9-1.4,1.7-1.7&#10;&#9;&#9;&#9;c0.4-0.2,0.7-0.6,0.9-1c0.3-0.6,0.4-0.9,1.1-0.9s0.8,0.3,1.1,0.9c0.1,0.4,0.5,0.8,0.9,1c0.8,0.3,1.7,0.8,1.7,1.7&#10;&#9;&#9;&#9;c0,0.5-0.3,1-0.9,1.2l0.1,0.5l0.1,0.5c0.9-0.3,1.6-1.1,1.6-2.1c0-0.1,0-0.1,0-0.2c0.6,0.3,1.3,0.5,2,0.5c2.4,0,4.4-2,4.4-4.4v0&#10;&#9;&#9;&#9;c0-0.1,0-0.3,0-0.4c0.7-0.9,1.8-1.3,2.9-1.3c0.4,0,0.7,0.1,1.1,0.1c1.4,0.3,2.9,0.2,4.3-0.2c-0.3,2-1.4,6-5.4,6.6&#10;&#9;&#9;&#9;c-0.3,0-0.5,0.3-0.4,0.6C604.4,535.2,604.6,535.4,604.9,535.4L604.9,535.4z M584.3,532.9c-1.9,0-3.4-1.5-3.3-3.4&#10;&#9;&#9;&#9;c0-1.9,1.5-3.4,3.4-3.3c1.8,0,3.3,1.5,3.3,3.3C587.6,531.4,586.1,532.9,584.3,532.9L584.3,532.9z M593.4,531&#10;&#9;&#9;&#9;c-0.1,0-0.1-0.1-0.2-0.1s-0.2-0.3-0.3-0.5c-0.3-0.9-1.1-1.5-2-1.5h0c-0.9,0-1.7,0.6-2,1.5c-0.1,0.2-0.2,0.4-0.3,0.5&#10;&#9;&#9;&#9;s-0.1,0.1-0.2,0.1c0.2-0.5,0.3-1,0.3-1.4c0-2.4-2-4.4-4.4-4.4h0c0,0-0.1,0-0.1,0c0.9-1.1,3.4-2.2,6.7-2.2s5.8,1,6.7,2.2&#10;&#9;&#9;&#9;c0,0-0.1,0-0.1,0c-2.4,0-4.4,2-4.4,4.4v0C593.1,530,593.2,530.5,593.4,531L593.4,531z M597.5,532.9c-1.9,0-3.4-1.5-3.4-3.3&#10;&#9;&#9;&#9;c0-1.9,1.5-3.4,3.3-3.4c1.9,0,3.4,1.5,3.4,3.3C600.9,531.4,599.4,532.8,597.5,532.9L597.5,532.9z" style="fill: rgb(0, 0, 0);"/>
		<path id="Path_584" class="st0" d="M616.9,526c-0.7-0.4-1.7-0.1-2,0.7c-0.1,0.3-0.2,0.6-0.1,0.9c0,0.3,0.3,0.5,0.6,0.4&#10;&#9;&#9;&#9;c0.3,0,0.5-0.3,0.4-0.6c0-0.2,0-0.4,0.2-0.5c0.1-0.1,0.3-0.1,0.5,0c0.3,0.2,0.4,0.6,0.4,0.9c0,1.1-0.7,2-1.7,2.4l-0.7,0.3l0.6,0.6&#10;&#9;&#9;&#9;c0.2,0.2,0.3,0.6,0.2,0.9c-0.5,0.2-1,0.3-1.5,0.4l-0.4,0.1v0.4c0,4.2-3.3,4.5-3.4,4.5l-0.2,0l-0.1,0.2c0,0-2.7,3-5.9,2.5&#10;&#9;&#9;&#9;c-1.6-0.2-3-1.2-3.7-2.7c-0.1-0.6-0.3-1.1-0.8-1.5c-0.5-0.4-1.2-0.5-1.8-0.4c-0.1,0-0.1,0-0.1,0.1c-0.5,0-1,0.2-1.3,0.6&#10;&#9;&#9;&#9;c-0.4,0.4-1,0.4-1.4,0c-0.8-0.8-2.1-0.8-2.9,0c0,0,0,0,0,0c-0.4,0.4-1,0.4-1.4,0c-0.8-0.8-2.1-0.8-2.9,0c0,0,0,0,0,0&#10;&#9;&#9;&#9;c-0.4,0.4-1,0.4-1.4,0c-0.4-0.4-0.8-0.6-1.3-0.6c-0.1,0-0.1,0-0.1-0.1c-0.6-0.2-1.3,0-1.8,0.4c-0.4,0.4-0.7,0.9-0.7,1.5&#10;&#9;&#9;&#9;c-0.7,1.5-2.1,2.5-3.7,2.7c-3.2,0.5-5.8-2.5-5.9-2.5l-0.1-0.2l-0.2,0c-0.1,0-3.4-0.3-3.4-4.5v-0.4l-0.4-0.1&#10;&#9;&#9;&#9;c-0.5-0.1-1-0.2-1.5-0.3c0-0.3,0-0.6,0.2-0.9l0.6-0.6l-0.8-0.3c-1-0.4-1.6-1.3-1.7-2.4c0-0.3,0.1-0.7,0.4-0.9&#10;&#9;&#9;&#9;c0.2-0.1,0.5,0,0.6,0.2c0.1,0.1,0.1,0.2,0,0.3c0,0.3,0.2,0.6,0.4,0.6s0.6-0.2,0.6-0.4c0.1-0.8-0.4-1.6-1.2-1.7&#10;&#9;&#9;&#9;c-0.3-0.1-0.7,0-0.9,0.1c-0.6,0.4-1,1.1-1,1.8c0,1.3,0.7,2.5,1.8,3.1c-0.2,0.5-0.2,0.9-0.1,1.4l0.1,0.2c0.1,0.1,0.3,0.5,1.8,0.7&#10;&#9;&#9;&#9;c0.2,4.2,3.3,4.9,4.2,5.1c1.5,1.6,3.5,2.6,5.8,2.8c1.7,0,3.3-0.7,4.5-1.9c0,0.1,0,0.2,0,0.2c0.1,0.6,0.1,1.3-0.1,2&#10;&#9;&#9;&#9;c-0.1,0.4-0.3,0.9-0.6,1.3c-0.4,0.7-0.7,1.2-0.3,1.7c0.1,0.2,0.4,0.3,0.6,0.3c0.1,0,0.2,0,0.3,0c1.7-0.4,2.9-1.8,3.6-4.1h10.6&#10;&#9;&#9;&#9;c0.7,2.4,1.9,3.7,3.6,4.1c0.1,0,0.2,0,0.4,0c0.2,0,0.5-0.1,0.6-0.3c0.3-0.4,0.1-0.9-0.3-1.7c-0.2-0.4-0.4-0.8-0.6-1.3&#10;&#9;&#9;&#9;c-0.1-0.6-0.2-1.3-0.1-2c0-0.1,0-0.2,0-0.2c1.2,1.2,2.8,1.9,4.5,1.9c2.2-0.2,4.3-1.1,5.8-2.8c0.9-0.1,4-0.9,4.2-5.1&#10;&#9;&#9;&#9;c1.5-0.3,1.7-0.6,1.8-0.7l0.1-0.2c0.1-0.5,0-1-0.1-1.4c1.1-0.6,1.8-1.8,1.8-3.1C617.9,527.1,617.5,526.4,616.9,526z M584.6,540.1&#10;&#9;&#9;&#9;c-0.5,1.8-1.3,2.8-2.5,3.3l0.1-0.2c0.3-0.5,0.5-1,0.7-1.5c0.2-0.8,0.2-1.6,0.1-2.3c0-0.4-0.1-0.8-0.1-1.2&#10;&#9;&#9;&#9;c-0.1-0.6,0.1-1.1,0.5-1.5c0.2-0.1,0.4-0.2,0.6-0.2c0.1,0,0.3,0,0.4,0c0.2,0,0.4,0.1,0.5,0.3C585,537.1,585.2,537.9,584.6,540.1z&#10;&#9;&#9;&#9; M586.8,539.4c0.4-0.5,1.1-0.7,1.6-0.3c0.1,0.1,0.2,0.2,0.3,0.3H586.8z M590,539.4c0.4-0.5,1.1-0.7,1.6-0.3&#10;&#9;&#9;&#9;c0.1,0.1,0.2,0.2,0.3,0.3H590z M593.2,539.4c0.4-0.5,1.1-0.7,1.6-0.3c0.1,0.1,0.2,0.2,0.3,0.3H593.2z M594.1,537.8&#10;&#9;&#9;&#9;c-0.7,0.9-2.1,1-3,0.2c-0.1-0.1-0.2-0.2-0.2-0.2c-0.7,0.9-2.1,1-3,0.2c-0.1-0.1-0.2-0.2-0.2-0.2c-0.7,0-1.3,0.3-1.7,0.9&#10;&#9;&#9;&#9;c0.1-0.5,0.1-0.9,0.1-1.4c0.7,0.3,1.5,0.1,2.1-0.5c0.4-0.4,1-0.4,1.4,0c0.8,0.8,2.1,0.8,2.9,0c0,0,0,0,0,0c0.4-0.4,1-0.4,1.4,0&#10;&#9;&#9;&#9;c0.5,0.6,1.3,0.7,2.1,0.5c0,0.5,0,0.9,0.1,1.4C595.4,538.1,594.8,537.8,594.1,537.8L594.1,537.8z M597.2,540.1&#10;&#9;&#9;&#9;c-0.7-2.2-0.4-3-0.2-3.3c0.1-0.2,0.3-0.3,0.5-0.3c0.1,0,0.3,0,0.4,0c0.2,0,0.4,0,0.6,0.2c0.3,0.4,0.5,1,0.5,1.5&#10;&#9;&#9;&#9;c0,0.4,0,0.8-0.1,1.2c-0.1,0.8-0.1,1.6,0.1,2.3c0.2,0.5,0.4,1,0.7,1.5c0,0.1,0.1,0.2,0.1,0.2C598.6,543,597.7,541.9,597.2,540.1&#10;&#9;&#9;&#9;L597.2,540.1z" style="fill: rgb(0, 0, 0);"/>
		<path id="Path_585" class="st0" d="M620.7,518.6c-0.4-1.1-1.3-1.9-2.4-2.2c-0.9-0.3-1.9-0.1-2.7,0.5c0.1-1.2-0.3-2.4-1.1-3.3&#10;&#9;&#9;&#9;c-0.9-0.9-2.2-1.4-3.5-1.2c-1.6,0.2-2.8,1.5-3,3.1c0,0.1,0,0.3,0,0.4c-0.7-0.4-1.5-0.6-2.4-0.5c-1.3,0.2-2.4,1.2-2.6,2.5&#10;&#9;&#9;&#9;c0-0.1-0.1-0.3-0.2-0.4l-0.2-0.3l-0.4,0c-0.7,0.1-1.4,0.3-2,0.7c-0.1-0.7-0.3-1.4-0.6-2l-0.2-0.4l-0.4,0.1c-0.6,0.2-1.2,0.6-1.6,1&#10;&#9;&#9;&#9;c-0.1-0.6-0.3-1.2-0.4-1.7l-0.2-0.5l-0.5,0.2c-0.7,0.2-1.4,0.6-1.9,1.1c-0.6-1.8-1.7-3.4-3.2-4.7l-0.3-0.3l-0.3,0.3&#10;&#9;&#9;&#9;c-1.5,1.2-2.6,2.9-3.2,4.7c-0.6-0.5-1.2-0.9-1.9-1.1l-0.5-0.2l-0.2,0.5c-0.2,0.6-0.3,1.1-0.4,1.7c-0.5-0.5-1-0.8-1.6-1l-0.4-0.1&#10;&#9;&#9;&#9;l-0.2,0.4c-0.3,0.6-0.5,1.3-0.6,2c-0.6-0.4-1.3-0.7-2-0.7l-0.4,0l-0.2,0.3c-0.1,0.1-0.1,0.3-0.2,0.4c-0.3-1.3-1.3-2.3-2.6-2.5&#10;&#9;&#9;&#9;c-0.8-0.1-1.7,0.1-2.4,0.5c0-0.1,0-0.3,0-0.4c-0.2-1.6-1.4-2.9-3-3.1c-1.3-0.2-2.6,0.3-3.5,1.2c-0.8,0.9-1.2,2.1-1.1,3.3&#10;&#9;&#9;&#9;c-0.8-0.6-1.7-0.8-2.6-0.5c-1.1,0.3-2,1.1-2.4,2.2c-0.4,1.4-0.1,3,0.8,4.2c1.8,2.7,6.9,3.8,7.1,3.8c0,0,0.1,0,0.1,0&#10;&#9;&#9;&#9;c0.3,0,0.5-0.2,0.5-0.5c0-0.2-0.2-0.5-0.4-0.5c0,0-4.9-1.1-6.5-3.4c-0.7-0.9-1-2.1-0.7-3.2c0.3-0.8,0.9-1.3,1.7-1.5&#10;&#9;&#9;&#9;c0.9-0.2,1.9,0.2,2.4,1c0.5,0.7,0.4,1.6-0.2,2.2c-0.4,0.4-1,0.5-1.5,0.2c-0.3-0.2-0.4-0.5-0.3-0.8c0.1-0.3,0-0.6-0.2-0.7&#10;&#9;&#9;&#9;c-0.3-0.1-0.6,0-0.7,0.2c0,0,0,0,0,0c-0.4,0.8-0.1,1.7,0.6,2.1c0.9,0.6,2.1,0.5,2.8-0.4c0.2-0.2,0.4-0.5,0.5-0.8&#10;&#9;&#9;&#9;c1.5,2.1,3.4,3.9,5.5,5.4c0.1,0.1,0.2,0.1,0.3,0.1c0.3,0,0.5-0.2,0.5-0.5c0-0.2-0.1-0.3-0.2-0.4c-0.1,0-5.5-3.8-6.1-7&#10;&#9;&#9;&#9;c-0.4-1.3-0.1-2.7,0.7-3.8c0.7-0.7,1.6-1,2.6-0.9c1.1,0.2,2,1.1,2.1,2.2c0.2,1-0.3,2-1.2,2.4c-0.6,0.3-1.4,0.1-1.7-0.5&#10;&#9;&#9;&#9;c-0.3-0.3-0.2-0.8,0.1-1.1c0.2-0.2,0.2-0.5,0.1-0.7c-0.2-0.2-0.5-0.2-0.7-0.1c-0.7,0.6-0.8,1.7-0.3,2.4c0.7,1,2,1.4,3.1,0.9&#10;&#9;&#9;&#9;c0.1,0,0.1-0.1,0.2-0.1c-0.1,0.6,0,1.2,0.1,1.8c0.6,3.2,5,5.4,5.2,5.5c0.1,0,0.2,0.1,0.2,0.1c0.3,0,0.5-0.2,0.5-0.5&#10;&#9;&#9;&#9;c0-0.2-0.1-0.4-0.3-0.5c0,0-4.1-2-4.6-4.7c-0.3-1.1-0.1-2.3,0.6-3.2c0.6-0.6,1.4-0.9,2.2-0.7c0.9,0.2,1.7,0.9,1.8,1.9&#10;&#9;&#9;&#9;c0.2,0.8-0.3,1.7-1,2c-0.5,0.3-1.1,0.1-1.4-0.4c-0.2-0.3-0.2-0.6,0-0.9c0.2-0.2,0.3-0.5,0.1-0.7s-0.5-0.3-0.7-0.1c0,0,0,0,0,0&#10;&#9;&#9;&#9;c-0.6,0.6-0.7,1.5-0.2,2.2c0.6,0.9,1.8,1.2,2.7,0.8c0.6-0.2,1-0.7,1.3-1.2c0.1,1.5,0.7,3,1.6,4.1l0.4,0.5l0.4-0.4&#10;&#9;&#9;&#9;c5.5-5.4,14.3-5.4,19.8,0l0.4,0.4l0.4-0.5c1-1.2,1.5-2.6,1.6-4.1c0.3,0.5,0.8,1,1.3,1.2c1,0.5,2.2,0.1,2.7-0.8&#10;&#9;&#9;&#9;c0.5-0.7,0.4-1.6-0.2-2.2c-0.2-0.2-0.5-0.2-0.7,0c-0.2,0.2-0.2,0.5,0,0.7c0,0,0,0,0,0c0.2,0.2,0.2,0.6,0,0.9&#10;&#9;&#9;&#9;c-0.3,0.5-0.9,0.7-1.4,0.4c-0.8-0.3-1.2-1.2-1-2c0.1-1,0.8-1.7,1.8-1.9c0.8-0.1,1.6,0.1,2.2,0.7c0.7,0.9,0.9,2.1,0.6,3.2&#10;&#9;&#9;&#9;c-0.5,2.7-4.6,4.7-4.6,4.7c-0.3,0.1-0.4,0.4-0.2,0.7c0.1,0.3,0.4,0.4,0.7,0.2c0.2-0.1,4.5-2.3,5.2-5.5c0.1-0.6,0.1-1.2,0.1-1.8&#10;&#9;&#9;&#9;c0.1,0,0.1,0.1,0.2,0.1c1.1,0.5,2.4,0.2,3.1-0.9c0.6-0.8,0.4-1.8-0.3-2.4c-0.2-0.2-0.6-0.2-0.7,0.1c-0.2,0.2-0.2,0.5,0,0.7&#10;&#9;&#9;&#9;c0.3,0.3,0.3,0.8,0.1,1.1c-0.4,0.6-1.1,0.8-1.8,0.5c-0.9-0.4-1.4-1.4-1.2-2.4c0.1-1.1,1-2,2.1-2.2c0.9-0.2,1.9,0.2,2.6,0.9&#10;&#9;&#9;&#9;c0.8,1.1,1.1,2.5,0.7,3.8c-0.6,3.2-6,7-6.1,7c-0.2,0.2-0.3,0.5-0.1,0.7c0.1,0.1,0.3,0.2,0.4,0.2c0.1,0,0.2,0,0.3-0.1&#10;&#9;&#9;&#9;c2.1-1.5,4-3.3,5.5-5.4c0.1,0.3,0.3,0.6,0.5,0.8c0.7,0.8,1.9,1,2.8,0.4c0.7-0.4,1-1.4,0.6-2.1c-0.1-0.3-0.4-0.4-0.7-0.2&#10;&#9;&#9;&#9;c-0.2,0.1-0.4,0.4-0.2,0.7c0.1,0.3,0,0.6-0.3,0.8c-0.5,0.3-1.1,0.2-1.5-0.2c-0.6-0.6-0.6-1.6-0.2-2.2c0.5-0.8,1.4-1.2,2.4-1&#10;&#9;&#9;&#9;c0.8,0.2,1.4,0.8,1.7,1.5c0.3,1.1,0,2.3-0.7,3.2c-1.6,2.3-6.4,3.4-6.5,3.4c-0.3,0.1-0.5,0.3-0.4,0.6c0.1,0.2,0.3,0.4,0.5,0.4&#10;&#9;&#9;&#9;c0,0,0.1,0,0.1,0c0.2,0,5.3-1.2,7.1-3.8C620.8,521.6,621.1,520,620.7,518.6z M601.1,523.2c-5.8-5.3-14.6-5.3-20.4,0&#10;&#9;&#9;&#9;c-1-1.4-1.3-3.2-0.9-4.9c0.7,0.1,1.3,0.5,1.8,1l1,1.3l0-1.6c0-0.7,0.1-1.5,0.4-2.2c0.6,0.4,1.1,0.8,1.5,1.4l1,1.4l-0.1-1.8&#10;&#9;&#9;&#9;c0-0.7,0.1-1.4,0.3-2.1c0.6,0.3,1.2,0.8,1.6,1.3l0.8,1.2l0.2-1.4c0.4-1.8,1.3-3.5,2.7-4.8c1.4,1.3,2.3,2.9,2.7,4.8l0.2,1.4&#10;&#9;&#9;&#9;l0.8-1.2c0.4-0.6,1-1,1.6-1.3c0.2,0.7,0.3,1.4,0.3,2.1l-0.1,1.8l1-1.4c0.4-0.6,0.9-1,1.5-1.4c0.3,0.7,0.4,1.5,0.4,2.2l0,1.6l1-1.3&#10;&#9;&#9;&#9;c0.5-0.5,1.1-0.9,1.8-1C602.4,520,602.1,521.8,601.1,523.2L601.1,523.2z" style="fill: rgb(0, 0, 0);"/>
		<path id="Path_586" class="st0" d="M578.6,529.9c0.2-0.2,0.3-0.5,0.1-0.7s-0.5-0.3-0.7-0.1c-2,1.4-1.4,4.3-1.3,4.4&#10;&#9;&#9;&#9;c0.1,0.2,0.3,0.4,0.5,0.4c0,0,0.1,0,0.1,0c0.3-0.1,0.5-0.3,0.4-0.6c0,0,0,0,0,0C577.7,533.2,577.2,530.9,578.6,529.9z" style="fill: rgb(0, 0, 0);"/>
		<path id="Path_587" class="st0" d="M576.6,529.5c0.2-0.2,0.3-0.5,0.1-0.7c-0.2-0.2-0.5-0.3-0.7-0.1c-1.9,1.3-1.3,3.9-1.2,4.1&#10;&#9;&#9;&#9;c0.1,0.2,0.3,0.4,0.5,0.4c0,0,0.1,0,0.1,0c0.3-0.1,0.5-0.3,0.4-0.6c0,0,0,0,0,0C575.8,532.5,575.4,530.4,576.6,529.5z" style="fill: rgb(0, 0, 0);"/>
		<path id="Path_588" class="st0" d="M604.5,533.9c0,0,0.1,0,0.1,0c0.2,0,0.5-0.2,0.5-0.4c0-0.1,0.7-3-1.3-4.4&#10;&#9;&#9;&#9;c-0.2-0.2-0.6-0.1-0.7,0.1c-0.2,0.2-0.1,0.6,0.1,0.7c1.4,1,0.9,3.3,0.9,3.3C604,533.5,604.2,533.8,604.5,533.9z" style="fill: rgb(0, 0, 0);"/>
		<path id="Path_589" class="st0" d="M606.4,533.1c0,0,0.1,0,0.1,0c0.2,0,0.5-0.2,0.5-0.4c0-0.1,0.6-2.8-1.2-4.1&#10;&#9;&#9;&#9;c-0.2-0.2-0.6-0.1-0.7,0.1c-0.2,0.2-0.1,0.6,0.1,0.7c0,0,0,0,0,0c1.3,0.9,0.8,2.9,0.8,2.9C605.9,532.8,606.1,533,606.4,533.1z" style="fill: rgb(0, 0, 0);"/>
	</g>
	<g>
		<path class="st0" d="M16.6,56.6v4.5H20l0.2,0.2V64L20,64.3h-3.4v4.5h6.1l0.2,0.2v2.7L22.7,72h-9.1l-0.2-0.2V53.6l0.2-0.2h9.1&#10;&#9;&#9;&#9;l0.2,0.2v2.7l-0.2,0.2H16.6z" style="fill: rgb(0, 0, 0);"/>
		<path class="st0" d="M32.5,62.7l3.8,9L36.1,72h-3.2l-0.2-0.1l-2-4.8l-2,4.8L28.4,72h-3.2L25,71.7l3.8-9L25,53.8l0.2-0.3h3.2&#10;&#9;&#9;&#9;l0.2,0.1l2,4.8l2-4.8l0.2-0.1h3.2l0.2,0.3L32.5,62.7z" style="fill: rgb(0, 0, 0);"/>
		<path class="st0" d="M44.6,53.5c0.7,0,1.3,0.2,1.9,0.5c0.5,0.3,0.9,0.7,1.1,1.2c0.3,0.5,0.4,1.1,0.4,1.7v4.5c0,0.3,0,0.6-0.1,1&#10;&#9;&#9;&#9;c-0.2,0.7-0.6,1.2-1.1,1.7c-0.6,0.5-1.3,0.7-2.1,0.7h-2.9v7L41.4,72h-2.7l-0.2-0.2V53.7l0.2-0.2H44.6z M44.2,61.6&#10;&#9;&#9;&#9;c0.2,0,0.3-0.1,0.5-0.2c0.1-0.1,0.2-0.3,0.2-0.5v-3.7c0-0.2-0.1-0.3-0.2-0.4c-0.1-0.1-0.3-0.2-0.5-0.2h-2.5v5H44.2z" style="fill: rgb(0, 0, 0);"/>
		<path class="st0" d="M59.9,69.1v2.7L59.7,72h-9l-0.2-0.2V53.7l0.2-0.2h2.7l0.2,0.2v15.2h6.1L59.9,69.1z" style="fill: rgb(0, 0, 0);"/>
		<path class="st0" d="M62.2,56.4c0-0.8,0.3-1.5,0.8-2.1s1.2-0.8,2.1-0.8h3.6c1.2,0,2.1,0.5,2.6,1.5c0.2,0.5,0.4,1,0.4,1.5v12.7&#10;&#9;&#9;&#9;c-0.1,0.8-0.3,1.5-0.9,2.1S69.6,72,68.7,72h-3.6c-1.2,0-2.1-0.5-2.6-1.5c-0.2-0.5-0.3-0.9-0.3-1.4V56.4z M67.9,68.9&#10;&#9;&#9;&#9;c0.2,0,0.3-0.1,0.5-0.2s0.2-0.3,0.2-0.5V57.3l0,0c0-0.4-0.2-0.6-0.6-0.6H66c-0.3,0-0.5,0.1-0.6,0.3l-0.1,0.4v10.9&#10;&#9;&#9;&#9;c0,0.2,0.1,0.3,0.2,0.4c0.1,0.1,0.3,0.2,0.5,0.2H67.9z" style="fill: rgb(0, 0, 0);"/>
		<path class="st0" d="M83.7,56.9v4.7c0,0.7-0.2,1.3-0.7,1.9s-1,1-1.6,1.2l2.2,7.1L83.5,72h-2.7l-0.3-0.2l-2.2-7.1h-0.9v7L77.2,72&#10;&#9;&#9;&#9;h-2.7l-0.2-0.2V53.7l0.2-0.2h5.9c0.7,0,1.3,0.2,1.9,0.5c0.5,0.3,0.9,0.7,1.1,1.2C83.6,55.7,83.7,56.3,83.7,56.9z M79.9,61.6&#10;&#9;&#9;&#9;c0.2,0,0.3-0.1,0.5-0.2c0.1-0.1,0.2-0.3,0.2-0.5v-3.7c0-0.2-0.1-0.3-0.2-0.4c-0.1-0.1-0.3-0.2-0.5-0.2h-2.5v5H79.9z" style="fill: rgb(0, 0, 0);"/>
		<path class="st0" d="M89.3,56.6v4.5h3.4l0.2,0.2V64l-0.2,0.2h-3.4v4.5h6.1l0.2,0.2v2.7L95.4,72h-9.1l-0.2-0.2V53.6l0.2-0.2h9.1&#10;&#9;&#9;&#9;l0.2,0.2v2.7l-0.2,0.2H89.3z" style="fill: rgb(0, 0, 0);"/>
		<path class="st0" d="M116,69.1c0,0.8-0.3,1.5-0.8,2.1c-0.5,0.6-1.2,0.9-2.1,0.9h-6.4l-0.2-0.2V53.7l0.2-0.2h6.4&#10;&#9;&#9;&#9;c1.2,0,2.1,0.5,2.6,1.5c0.2,0.5,0.3,0.9,0.3,1.5v4.5c0,0.9-0.3,1.5-1,1.8l0,0c0.7,0.3,1.1,0.9,1.1,1.8V69.1z M109.7,56.6v4.1h2.5&#10;&#9;&#9;&#9;c0.3,0,0.5-0.1,0.5-0.3l0.1-0.4v-2.8c0-0.2-0.1-0.3-0.2-0.4c-0.1-0.1-0.3-0.2-0.5-0.2H109.7z M112.9,65.4c0-0.2-0.1-0.3-0.2-0.4&#10;&#9;&#9;&#9;c-0.1-0.1-0.3-0.2-0.5-0.2h-2.5v4.1h2.5c0.2,0,0.4-0.1,0.4-0.2s0.2-0.3,0.2-0.5V65.4z" style="fill: rgb(0, 0, 0);"/>
		<path class="st0" d="M125.7,53.6l3.6,18.1l-0.2,0.3h-2.7l-0.3-0.2l-0.8-4.3H122l-0.8,4.3L121,72h-2.7l-0.2-0.3l3.6-18.1l0.2-0.2&#10;&#9;&#9;&#9;h3.6L125.7,53.6z M123.7,58.5l-1.1,5.8h2.1L123.7,58.5z" style="fill: rgb(0, 0, 0);"/>
		<path class="st0" d="M141,69.1v2.7l-0.2,0.2h-9l-0.2-0.2V53.7l0.2-0.2h2.7l0.2,0.2v15.2h6.1L141,69.1z" style="fill: rgb(0, 0, 0);"/>
		<path class="st0" d="M146.6,53.7v18.1l-0.2,0.2h-2.7l-0.2-0.2V53.7l0.2-0.2h2.7L146.6,53.7z" style="fill: rgb(0, 0, 0);"/>
	</g>
</g></g></svg>