<svg xmlns="http://www.w3.org/2000/svg" width="28.091" height="28.091" viewBox="0 0 28.091 28.091">
  <g id="Group_519294" data-name="Group 519294" transform="translate(-114.924 -411.886)">
    <path id="Path_618" data-name="Path 618" d="M128.97,439.976a14.045,14.045,0,1,1,14.045-14.046,14.062,14.062,0,0,1-14.045,14.046Zm0-25.944a11.9,11.9,0,1,0,11.9,11.9,11.912,11.912,0,0,0-11.9-11.9Z" transform="translate(0 0)" fill="#1a1818"/>
    <g id="Group_519281" data-name="Group 519281" transform="translate(121.679 424.008)">
      <path id="Path_619" data-name="Path 619" d="M154.072,438.276a1.923,1.923,0,1,1-1.924-1.923A1.923,1.923,0,0,1,154.072,438.276Z" transform="translate(-139.489 -436.353)" fill="#1a1818"/>
      <path id="Path_620" data-name="Path 620" d="M132.4,438.276a1.923,1.923,0,1,1-1.923-1.923A1.923,1.923,0,0,1,132.4,438.276Z" transform="translate(-128.557 -436.353)" fill="#1a1818"/>
    </g>
    <g id="Group_519282" data-name="Group 519282" transform="translate(123.073 429.824)">
      <path id="Path_621" data-name="Path 621" d="M142.091,452.2a1.069,1.069,0,0,1-.748-.3,5.839,5.839,0,0,0-8.15,0,1.073,1.073,0,1,1-1.5-1.54,7.986,7.986,0,0,1,11.141,0,1.073,1.073,0,0,1-.748,1.844Z" transform="translate(-131.372 -448.09)" fill="#1a1818"/>
    </g>
  </g>
</svg>
