<?xml version="1.0" encoding="utf-8"?>
<!-- Generator: Adobe Illustrator 23.0.2, SVG Export Plug-In . SVG Version: 6.00 Build 0)  -->
<svg version="1.1" id="Layer_1" xmlns="http://www.w3.org/2000/svg" xmlns:xlink="http://www.w3.org/1999/xlink" x="0px" y="0px"
	 viewBox="0 0 60 60" style="enable-background:new 0 0 60 60;" xml:space="preserve">
<g>
	<path d="M27.8,39.3c0,2.1-0.8,3.9-2.5,5.5c-1.7,1.6-3.7,2.3-5.9,2.3c-3.6,0-6.3-1.2-8.3-3.6c-1.9-2.4-2.9-5.7-2.9-9.9
		c0-3.9,1.7-7.8,5-11.8c3.3-4,7.3-7,12-9l2.2,3.5c-3.7,1.8-6.6,3.9-8.7,6.2c-2.1,2.4-3.3,5.3-3.6,8.6h2.7c2,0,3.7,0.2,4.9,0.7
		c1.3,0.5,2.3,1.1,3.1,1.9c0.8,0.8,1.3,1.6,1.6,2.6C27.6,37.3,27.8,38.3,27.8,39.3z M51.9,39.3c0,2.1-0.8,3.9-2.5,5.5
		c-1.7,1.6-3.7,2.3-5.9,2.3c-3.6,0-6.3-1.2-8.3-3.6c-1.9-2.4-2.9-5.7-2.9-9.9c0-3.9,1.7-7.8,5-11.8c3.3-4,7.3-7,12-9l2.2,3.5
		c-3.7,1.8-6.6,3.9-8.7,6.2c-2.1,2.4-3.3,5.3-3.6,8.6h2.7c2,0,3.7,0.2,4.9,0.7c1.3,0.5,2.3,1.1,3.1,1.9c0.8,0.8,1.3,1.6,1.6,2.6
		C51.7,37.3,51.9,38.3,51.9,39.3z"/>
</g>
</svg>
