<svg xmlns="http://www.w3.org/2000/svg" width="140.708" height="32.53" viewBox="0 0 140.708 32.53">
  <g id="Symbol_2_1" data-name="Symbol 2 – 1" transform="translate(-25 -48.722)">
    <g id="Group_519056" data-name="Group 519056" transform="translate(25 48.722)">
      <g id="Group_519052" data-name="Group 519052">
        <path id="Path_146" data-name="Path 146" d="M19.548,13.873v-5.7L11.372,0H0L11.024,11.024l-9.35,9.35V26.05l6.48,6.48H19.5L10.2,23.223Z" fill="#fff"/>
        <path id="Path_147" data-name="Path 147" d="M27.788,13.873v-5.7L19.591,0H8.24L19.264,11.024l-9.35,9.35V26.05l6.458,6.48H27.745l-9.307-9.307Z" transform="translate(9.677)" fill="#fff"/>
      </g>
      <g id="Group_519055" data-name="Group 519055" transform="translate(50.752 7.785)">
        <g id="Group_519054" data-name="Group 519054">
          <g id="Group_519053" data-name="Group 519053">
            <path id="Path_148" data-name="Path 148" d="M31.973,6.7v4.284a2.878,2.878,0,0,1-.587,1.718,2.731,2.731,0,0,1-1.435,1.065l2,6.458-.152.283H29.32l-.239-.152-2-6.436h-.848V20.31l-.2.2h-2.5l-.2-.2V3.806l.2-.2h5.349a3.277,3.277,0,0,1,1.7.435A2.386,2.386,0,0,1,31.6,5.154,3.174,3.174,0,0,1,31.973,6.7Zm-3.479,4.327a.579.579,0,0,0,.435-.2.558.558,0,0,0,.174-.435V7.046a.631.631,0,0,0-.174-.391.607.607,0,0,0-.435-.174H26.232v4.545h2.261Z" transform="translate(-23.34 -3.545)" fill="#fff"/>
            <path id="Path_149" data-name="Path 149" d="M28.27,6.3a2.716,2.716,0,0,1,.718-1.914A2.523,2.523,0,0,1,30.945,3.6H34.25a2.483,2.483,0,0,1,2.37,1.348A3.072,3.072,0,0,1,36.946,6.3V17.843a2.981,2.981,0,0,1-.783,1.914,2.46,2.46,0,0,1-1.914.783H30.945a2.444,2.444,0,0,1-2.37-1.37,3.022,3.022,0,0,1-.3-1.3Zm5.175,11.329a.579.579,0,0,0,.435-.2.646.646,0,0,0,.174-.435V7.1l-.022-.022a.506.506,0,0,0-.565-.565H31.793q-.424,0-.522.261l-.087.37v9.937a.545.545,0,0,0,.174.391.607.607,0,0,0,.435.174h1.653Z" transform="translate(-17.55 -3.557)" fill="#fff"/>
            <path id="Path_150" data-name="Path 150" d="M39.778,3.732l3.305,16.482-.174.261H40.431l-.239-.174-.718-3.936H36.408L35.669,20.3l-.2.174H33.016l-.2-.261L36.125,3.732l.2-.152h3.305ZM37.93,8.19l-.978,5.284h1.957Z" transform="translate(-12.206 -3.58)" fill="#fff"/>
            <path id="Path_151" data-name="Path 151" d="M46.9,17.831a2.625,2.625,0,0,1-.739,1.892,2.524,2.524,0,0,1-1.914.783H38.446l-.2-.2V3.806l.2-.2h5.806A2.43,2.43,0,0,1,46.6,4.958a3.14,3.14,0,0,1,.3,1.348V17.831Zm-3.479-.217c.283,0,.478-.2.587-.609V7.046a.544.544,0,0,0-.174-.391A.607.607,0,0,0,43.4,6.48H41.142V17.613Z" transform="translate(-5.829 -3.545)" fill="#fff"/>
            <path id="Path_152" data-name="Path 152" d="M46.751,13.515a.623.623,0,0,0-.457.174.594.594,0,0,0-.174.413v3.523h2.892v-.609l.217-.217h2.479l.2.2V20.3l-.2.2H43.467l-.2-.2V13.276a2.7,2.7,0,0,1,.718-1.892,2.523,2.523,0,0,1,1.957-.783h2.479a.562.562,0,0,0,.457-.2.7.7,0,0,0,.174-.457V7.1c-.043-.413-.239-.609-.609-.609H46.794a.562.562,0,0,0-.457.2.7.7,0,0,0-.174.457v.8l-.2.2H43.489l-.239-.2V6.275a2.7,2.7,0,0,1,.718-1.892A2.523,2.523,0,0,1,45.925,3.6H49.23A2.441,2.441,0,0,1,51.6,4.948a3.337,3.337,0,0,1,.3,1.3V10.8a2.791,2.791,0,0,1-.718,1.914,2.538,2.538,0,0,1-1.957.8Z" transform="translate(0.043 -3.557)" fill="#fff"/>
            <path id="Path_153" data-name="Path 153" d="M56.9,6.7v4.284a2.878,2.878,0,0,1-.587,1.718,2.731,2.731,0,0,1-1.435,1.065l2,6.458-.152.283H54.25l-.239-.152-2-6.436h-.848V20.31l-.2.2h-2.5l-.2-.2V3.806l.2-.2h5.349a3.277,3.277,0,0,1,1.7.435,2.386,2.386,0,0,1,1.022,1.109A3.174,3.174,0,0,1,56.9,6.7Zm-3.479,4.327a.579.579,0,0,0,.435-.2.647.647,0,0,0,.174-.435V7.046a.631.631,0,0,0-.174-.391.607.607,0,0,0-.435-.174H51.162v4.545h2.261Z" transform="translate(5.939 -3.545)" fill="#fff"/>
            <path id="Path_154" data-name="Path 154" d="M56.152,3.8V20.278l-.2.2h-2.5l-.2-.2V3.8l.2-.2h2.5Z" transform="translate(11.799 -3.557)" fill="#fff"/>
            <path id="Path_155" data-name="Path 155" d="M64.346,3.8V20.278l-.174.2H61.693l-.239-.13-2.892-8.676v8.611l-.2.2h-2.5l-.2-.2V3.8l.2-.2h2.5l.2.152,2.892,8.676V3.8l.239-.2h2.479Z" transform="translate(14.63 -3.557)" fill="#fff"/>
            <path id="Path_156" data-name="Path 156" d="M60.7,6.3a2.716,2.716,0,0,1,.718-1.914A2.523,2.523,0,0,1,63.375,3.6H66.68a2.483,2.483,0,0,1,2.37,1.348A3.072,3.072,0,0,1,69.376,6.3V8.775l-.2.174h-2.5l-.2-.174V7.1l-.022-.022a.506.506,0,0,0-.565-.565H64.223q-.424,0-.522.261l-.087.37v9.937a.544.544,0,0,0,.174.391.607.607,0,0,0,.435.174H65.9a.476.476,0,0,0,.5-.283l.109-.326v-2.3h-.587l-.239-.2V12.059l.239-.2h3.305l.2.2v5.762a2.981,2.981,0,0,1-.783,1.914,2.46,2.46,0,0,1-1.914.783H63.418a2.444,2.444,0,0,1-2.37-1.37,3.022,3.022,0,0,1-.3-1.3V6.3Z" transform="translate(20.537 -3.557)" fill="#fff"/>
          </g>
        </g>
      </g>
    </g>
  </g>
</svg>
