<svg xmlns="http://www.w3.org/2000/svg" width="28.284" height="28.284" viewBox="0 0 28.284 28.284">
  <path id="path4344_1_" d="M18.221.083A4.169,4.169,0,0,0,16.358,1.2L13.1,4.457,1.628,3.307a.184.184,0,0,0-.146.052L.051,4.79A.182.182,0,0,0,.1,5.082L8.647,8.914,5.735,11.827,2.376,11.5a.184.184,0,0,0-.146.051L1.1,12.676a.186.186,0,0,0-.051.161.183.183,0,0,0,.1.133L5.19,14.81l1.84,4.035a.181.181,0,0,0,.293.053L8.452,17.77a.18.18,0,0,0,.051-.146l-.33-3.359,2.912-2.912L14.918,19.9a.182.182,0,0,0,.133.1.184.184,0,0,0,.159-.049l1.431-1.431a.184.184,0,0,0,.052-.146L15.542,6.9,18.8,3.643a4.182,4.182,0,0,0,1.12-1.863A1.516,1.516,0,0,0,19.691.309a1.513,1.513,0,0,0-1.47-.226Z" transform="translate(14.143 0) rotate(45)" fill="gray"/>
</svg>
