<svg xmlns="http://www.w3.org/2000/svg" width="51.807" height="51.804" viewBox="0 0 51.807 51.804">
  <g id="Group_519296" data-name="Group 519296" transform="translate(-0.008 -0.015)">
    <path id="Path_572" data-name="Path 572" d="M28.947,33.049A20.488,20.488,0,0,0,38.3,42.4a1.111,1.111,0,0,0,1.278-.213l5.171-5.171a1.118,1.118,0,0,0,0-1.575L35.906,26.6a1.12,1.12,0,0,0-.788-.329,1.093,1.093,0,0,0-.788.329L29.16,31.77A1.111,1.111,0,0,0,28.947,33.049Zm13.428,3.176-3.8,3.8a18.324,18.324,0,0,1-7.263-7.263l3.8-3.8Z" transform="translate(-10.215 -9.305)" fill="gray"/>
    <path id="Path_573" data-name="Path 573" d="M22.173,45.784l5.371-2.356a1.19,1.19,0,0,0,.342-.232l23.6-23.6a1.118,1.118,0,0,0,.323-.878,20.449,20.449,0,0,0-18.7-18.7,1.1,1.1,0,0,0-.878.323L22.586,9.986a9.216,9.216,0,0,0-2.673-7.244,1.12,1.12,0,0,0-.788-.329,1.093,1.093,0,0,0-.788.329L11.992,9.089A15.978,15.978,0,0,0,8.234,24.667L6.046,29.651.674,32.007a1.107,1.107,0,0,0-.646.813,1.1,1.1,0,0,0,.31.994L18.015,51.491a1.112,1.112,0,0,0,1.808-.336ZM38,3.4l-8.9,8.9a1.114,1.114,0,0,0,1.575,1.575L40.159,4.4A18.07,18.07,0,0,1,43.5,6.745l-9.974,9.981A1.114,1.114,0,1,0,35.1,18.3L45.078,8.32a18.289,18.289,0,0,1,2.343,3.338l-9.484,9.484a1.114,1.114,0,1,0,1.575,1.575l8.909-8.9a18.022,18.022,0,0,1,1.117,4.564L27.1,40.826,11,24.725,33.438,2.284A18.3,18.3,0,0,1,38,3.4Zm-24.41,7.237L19.061,5.17a7.028,7.028,0,0,1-.723,9.064l-8.315,8.309A13.594,13.594,0,0,1,13.593,10.638ZM3.063,33.389,6.64,31.82l2.26,2.26A1.114,1.114,0,0,0,10.474,32.5l-2.26-2.26,1.569-3.577L25.149,42.033,21.572,43.6l-2.26-2.26a1.114,1.114,0,1,0-1.575,1.575L20,45.177l-1.569,3.577Z" transform="translate(0 0)" fill="gray"/>
  </g>
</svg>
