<svg id="Group_519230" data-name="Group 519230" xmlns="http://www.w3.org/2000/svg" width="115" height="79.28" viewBox="0 0 115 79.28">
  <g id="Group_519224" data-name="Group 519224">
    <g id="Group_519220" data-name="Group 519220">
      <path id="Path_559" data-name="Path 559" d="M34.8,37.96c-5.01,0-9.24-4.86-9.24-10.62,0-5.57,4.15-10.1,9.24-10.1s9.24,4.53,9.24,10.1C44.04,33.1,39.8,37.96,34.8,37.96Zm0-17.71c-3.44,0-6.24,3.19-6.24,7.1,0,4.06,2.92,7.62,6.24,7.62s6.24-3.56,6.24-7.62C41.04,23.43,38.24,20.25,34.8,20.25Z" fill="gray"/>
    </g>
    <g id="Group_519221" data-name="Group 519221">
      <path id="Path_560" data-name="Path 560" d="M48.08,62.33H21.51a3.926,3.926,0,0,1-3.92-3.92V55.65a17.205,17.205,0,0,1,34.41,0v2.76A3.926,3.926,0,0,1,48.08,62.33ZM34.8,41.44a14.216,14.216,0,0,0-14.2,14.2V58.4a.918.918,0,0,0,.92.92H48.1a.924.924,0,0,0,.92-.92V55.64A14.252,14.252,0,0,0,34.8,41.44Z" fill="gray"/>
    </g>
    <g id="Group_519222" data-name="Group 519222">
      <path id="Path_561" data-name="Path 561" d="M25.94,62.33a1.5,1.5,0,0,1-1.5-1.5V52.6a1.5,1.5,0,0,1,3,0v8.23A1.5,1.5,0,0,1,25.94,62.33Z" fill="gray"/>
    </g>
    <g id="Group_519223" data-name="Group 519223">
      <path id="Path_562" data-name="Path 562" d="M43.65,62.33a1.5,1.5,0,0,1-1.5-1.5V52.6a1.5,1.5,0,0,1,3,0v8.23A1.5,1.5,0,0,1,43.65,62.33Z" fill="gray"/>
    </g>
  </g>
  <g id="Group_519225" data-name="Group 519225">
    <path id="Path_563" data-name="Path 563" d="M101.02,79.28H13.98A14,14,0,0,1,0,65.3V13.98A13.994,13.994,0,0,1,13.98,0h87.04A13.994,13.994,0,0,1,115,13.98V65.3A14,14,0,0,1,101.02,79.28ZM13.98,3A11,11,0,0,0,3,13.98V65.3A11,11,0,0,0,13.98,76.28h87.04A11,11,0,0,0,112,65.3V13.98A11,11,0,0,0,101.02,3Z" fill="gray"/>
  </g>
  <g id="Group_519226" data-name="Group 519226">
    <path id="Path_564" data-name="Path 564" d="M97.02,26.17H64.53a1.5,1.5,0,1,1,0-3H97.02a1.5,1.5,0,1,1,0,3Z" fill="gray"/>
  </g>
  <g id="Group_519227" data-name="Group 519227">
    <path id="Path_565" data-name="Path 565" d="M97.02,36.79H64.53a1.5,1.5,0,1,1,0-3H97.02a1.5,1.5,0,1,1,0,3Z" fill="gray"/>
  </g>
  <g id="Group_519228" data-name="Group 519228">
    <path id="Path_566" data-name="Path 566" d="M97.02,47.41H64.53a1.5,1.5,0,1,1,0-3H97.02a1.5,1.5,0,1,1,0,3Z" fill="gray"/>
  </g>
  <g id="Group_519229" data-name="Group 519229">
    <path id="Path_567" data-name="Path 567" d="M78.67,58.03H64.53a1.5,1.5,0,1,1,0-3H78.67a1.5,1.5,0,0,1,0,3Z" fill="gray"/>
  </g>
</svg>
