<svg id="Group_519200" data-name="Group 519200" xmlns="http://www.w3.org/2000/svg" width="64.676" height="36" viewBox="0 0 64.676 36">
  <path id="Path_53" data-name="Path 53" d="M57.325,17.382a9.252,9.252,0,0,0-5.04,1.488l-.067.045-2.711-3.066,1.133-1a.855.855,0,0,0,.072-1.209l-.647-.728h1.659a.859.859,0,0,0,.859-.859V5.494a.859.859,0,0,0-.859-.859H49.637a4.138,4.138,0,0,0-3.988,3.053l-.045.171-.89-1.007A.857.857,0,0,0,43.5,6.78l-.643.567L41.818,1.812A2.019,2.019,0,0,0,39.754,0H36.1a.859.859,0,1,0,0,1.717h3.651a.312.312,0,0,1,.364.3c.013.108.814,4.375,1.236,6.614l.009.054-.94.832L40.37,9.5a14.349,14.349,0,0,0-4.977-.85c-4.851,0-8.911,2.212-9.644,5.256l-.018.081-.085-.009c-3.534-.391-4.779-1.776-6.843-4.064l-.288-.315a.859.859,0,0,0-.634-.283.875.875,0,0,0-.54.189,7.537,7.537,0,0,0-2.756,4.411l-.018.1-.1-.022A13.087,13.087,0,0,0,3.93,15.831a.838.838,0,0,0-.36.549.854.854,0,0,0,.13.643.868.868,0,0,0,.71.378.844.844,0,0,0,.481-.148A11.394,11.394,0,0,1,22.656,26.7a11.421,11.421,0,0,1-.463,3.219.858.858,0,0,0,.58,1.066.907.907,0,0,0,.243.036H38.738a.86.86,0,0,0,.814-.589l3.957-12,.018-.018a5.622,5.622,0,0,0,1.191-1.6l.063-.13,1.106,1.25A.857.857,0,0,0,47.1,18l1.133-1,2.653,3-.063.063a9.287,9.287,0,1,0,6.506-2.68ZM49.637,6.353h1.232V11.2H49.637a2.421,2.421,0,0,1,0-4.842Zm-29.5,10.7a13.087,13.087,0,0,0-3.858-2.473l-.067-.027.009-.072a5.637,5.637,0,0,1,1.524-3.035l.072-.076.067.076c2.082,2.3,3.745,3.835,7.747,4.244l.067.009.013.067a4.444,4.444,0,0,0,.427,1.173l.072.139H20.165Zm17.98,12.243H24.108l.022-.112a13.28,13.28,0,0,0,.238-2.491,12.986,12.986,0,0,0-.247-2.531l-.022-.112h4.069a.859.859,0,1,0,0-1.717H23.622l-.022-.063a13.082,13.082,0,0,0-1.771-3.327l-.112-.153H41.58Zm4.334-12.243-.027.027H28.366l-.027-.027a3.125,3.125,0,0,1-1-2.154c0-2.464,3.687-4.55,8.052-4.55s8.052,2.082,8.052,4.55A3.1,3.1,0,0,1,42.452,17.049Zm4.145-.913-1.461-1.65,0-.031A5.657,5.657,0,0,0,42.2,10.372L42.1,10.3,43.99,8.628l4.869,5.5ZM57.325,34.278a7.589,7.589,0,1,1,7.589-7.589A7.6,7.6,0,0,1,57.325,34.278Z" transform="translate(-1.956)" fill="gray"/>
  <path id="Path_54" data-name="Path 54" d="M117.316,48.76a4.766,4.766,0,1,0,4.766,4.766A4.771,4.771,0,0,0,117.316,48.76Zm0,7.814a3.053,3.053,0,1,1,3.053-3.053A3.052,3.052,0,0,1,117.316,56.574Z" transform="translate(-61.947 -26.837)" fill="gray"/>
  <path id="Path_55" data-name="Path 55" d="M9.3,38.66a9.3,9.3,0,1,0,9.3,9.307A9.316,9.316,0,0,0,9.3,38.66Zm0,16.9a7.589,7.589,0,1,1,7.589-7.589A7.6,7.6,0,0,1,9.3,55.556Z" transform="translate(0 -21.278)" fill="gray"/>
  <path id="Path_56" data-name="Path 56" d="M14.856,48.76a4.766,4.766,0,1,0,4.766,4.766A4.771,4.771,0,0,0,14.856,48.76Zm0,7.814A3.053,3.053,0,1,1,17.9,53.521,3.056,3.056,0,0,1,14.856,56.574Z" transform="translate(-5.553 -26.837)" fill="gray"/>
  <path id="Path_57" data-name="Path 57" d="M65.7,54a.859.859,0,0,0,.859-.859V50.519a.859.859,0,1,0-1.717,0v2.626A.862.862,0,0,0,65.7,54Z" transform="translate(-35.688 -27.333)" fill="gray"/>
  <path id="Path_58" data-name="Path 58" d="M74.169,54a.859.859,0,0,0,.859-.859V50.519a.859.859,0,0,0-1.717,0v2.626A.859.859,0,0,0,74.169,54Z" transform="translate(-40.349 -27.333)" fill="gray"/>
</svg>
