<svg id="Group_34" data-name="Group 34" xmlns="http://www.w3.org/2000/svg" width="55.238" height="50.537" viewBox="0 0 55.238 50.537">
  <path id="Path_32" data-name="Path 32" d="M11.876,16.753h2.351V8.526A3.536,3.536,0,0,0,10.7,5H9.526A3.536,3.536,0,0,0,6,8.526v8.227H8.351V13.227h3.526ZM8.351,10.876V8.526A1.179,1.179,0,0,1,9.526,7.351H10.7a1.179,1.179,0,0,1,1.175,1.175v2.351Z" transform="translate(1.052 0.876)" fill="gray"/>
  <path id="Path_33" data-name="Path 33" d="M11.165,31.733a1.171,1.171,0,0,0,1.128-.858c1.081-3.831,3.162-6.264,5.171-8.615,2.5-2.926,4.866-5.688,4.866-10.507C22.33,5.489,17.112,0,11.165,0S0,5.489,0,11.753c0,4.819,2.362,7.581,4.854,10.507,2.01,2.351,4.09,4.8,5.171,8.615A1.2,1.2,0,0,0,11.165,31.733ZM2.351,11.753c0-4.924,4.2-9.4,8.815-9.4s8.815,4.478,8.815,9.4c0,3.949-1.986,6.276-4.3,8.979a28.386,28.386,0,0,0-4.513,6.488,28.758,28.758,0,0,0-4.513-6.488C4.337,18.029,2.351,15.7,2.351,11.753Z" fill="gray"/>
  <path id="Path_34" data-name="Path 34" d="M15,22.351h8.533a1.138,1.138,0,0,1,1.034.623,1.171,1.171,0,0,1-.059,1.211l-8.1,12.141a2.352,2.352,0,0,0,1.963,3.655H33.8V37.629H18.373l8.1-12.152A3.52,3.52,0,0,0,23.533,20H15Z" transform="translate(2.629 3.506)" fill="gray"/>
  <path id="Path_35" data-name="Path 35" d="M9.232,42.006a1.116,1.116,0,0,1,.047-1.2l8.1-12.152a2.336,2.336,0,0,0,.118-2.409A2.313,2.313,0,0,0,15.426,25h-2.5v2.351h2.5L7.328,39.5a3.52,3.52,0,0,0,2.938,5.477H38.779V42.629H10.266A1.138,1.138,0,0,1,9.232,42.006Z" transform="translate(1.181 4.382)" fill="gray"/>
  <path id="Path_36" data-name="Path 36" d="M38.7,21H35.175A1.179,1.179,0,0,0,34,22.175v9.4a1.179,1.179,0,0,0,1.175,1.175H38.7a3.536,3.536,0,0,0,3.526-3.526,3.5,3.5,0,0,0-.917-2.351,3.5,3.5,0,0,0,.917-2.351A3.536,3.536,0,0,0,38.7,21Zm0,9.4H36.351V28.052H38.7a1.175,1.175,0,0,1,0,2.351Zm0-4.7H36.351V23.351H38.7a1.175,1.175,0,0,1,0,2.351Z" transform="translate(5.96 3.681)" fill="gray"/>
  <path id="Path_192" data-name="Path 192" d="M39.165,16C33.218,16,28,21.489,28,27.753c0,4.819,2.362,7.581,4.854,10.507,2.01,2.351,4.09,4.8,5.171,8.615a1.2,1.2,0,0,0,1.14.858,1.171,1.171,0,0,0,1.128-.858c1.081-3.831,3.162-6.264,5.171-8.615,2.5-2.926,4.866-5.688,4.866-10.507C50.33,21.489,45.112,16,39.165,16Zm4.513,20.732a28.386,28.386,0,0,0-4.513,6.488,28.758,28.758,0,0,0-4.513-6.488c-2.315-2.7-4.3-5.03-4.3-8.979,0-4.924,4.2-9.4,8.815-9.4s8.815,4.478,8.815,9.4C47.98,31.7,45.994,34.029,43.678,36.732Z" transform="translate(4.908 2.805)" fill="gray"/>
</svg>
