<?xml version="1.0" encoding="utf-8"?>
<!-- Generator: Adobe Illustrator 25.0.1, SVG Export Plug-In . SVG Version: 6.00 Build 0)  -->
<svg version="1.1" id="Layer_1" xmlns="http://www.w3.org/2000/svg" xmlns:xlink="http://www.w3.org/1999/xlink" x="0px" y="0px"
	 viewBox="0 0 203.5 45.3" style="enable-background:new 0 0 203.5 45.3;" xml:space="preserve">
<style type="text/css">
	.st0{fill:#FFFFFF;}
</style>
<g>
	<g>
		<path class="st0" d="M73.1,16v5.3c0,0.7-0.2,1.5-0.7,2.1c-0.5,0.7-1.1,1.1-1.8,1.3l2.5,8l-0.2,0.4h-3.1L69.6,33l-2.5-8H66v7.9
			l-0.3,0.3h-3.1l-0.3-0.3V12.5l0.3-0.3h6.6c0.8,0,1.5,0.2,2.1,0.5c0.6,0.4,1,0.8,1.3,1.4C73,14.7,73.1,15.4,73.1,16z M68.8,21.4
			c0.2,0,0.4-0.1,0.5-0.2c0.1-0.2,0.2-0.3,0.2-0.5v-4.2c0-0.2-0.1-0.3-0.2-0.5c-0.1-0.1-0.3-0.2-0.5-0.2H66v5.6H68.8z"/>
		<path class="st0" d="M83.2,12.3l4.1,20.5l-0.2,0.3H84l-0.3-0.2L82.8,28H79l-0.9,4.9l-0.3,0.2h-3l-0.3-0.3l4.1-20.5l0.3-0.2H83
			L83.2,12.3z M80.9,17.9l-1.2,6.6h2.4L80.9,17.9z"/>
		<path class="st0" d="M99.6,12.4v20.5l-0.2,0.3h-3.1L96.1,33l-3.6-10.8v10.7l-0.3,0.3h-3.1l-0.3-0.3V12.4l0.3-0.3h3.1l0.3,0.2
			l3.6,10.8V12.4l0.3-0.3h3.1L99.6,12.4z"/>
		<path class="st0" d="M105.7,33.2c-1,0-1.8-0.3-2.4-1s-0.9-1.4-0.9-2.3v-2l0.3-0.3h3.1l0.3,0.3V29c0,0.2,0.1,0.4,0.2,0.5
			s0.3,0.2,0.5,0.2h2.1c0.2,0,0.4-0.1,0.5-0.2c0.1-0.2,0.2-0.3,0.2-0.5v-3.6l0,0c0-0.5-0.2-0.7-0.7-0.7h-3.1c-1.4,0-2.3-0.6-2.9-1.7
			c-0.3-0.5-0.4-1.1-0.4-1.6v-5.6c0-0.9,0.3-1.7,0.9-2.4c0.6-0.6,1.4-1,2.4-1h4.1c1.4,0,2.3,0.6,2.9,1.7c0.3,0.6,0.4,1.1,0.4,1.7v2
			l-0.3,0.3h-3.1l-0.3-0.3v-1.1l0,0c0-0.5-0.2-0.7-0.7-0.7h-2.1c-0.4,0-0.6,0.1-0.6,0.3l-0.1,0.4v3.6c0,0.2,0.1,0.3,0.2,0.5
			c0.1,0.1,0.3,0.2,0.5,0.2h3.1c1.4,0,2.3,0.6,2.9,1.7c0.3,0.6,0.4,1.1,0.4,1.7V30c0,0.3-0.1,0.6-0.2,1c-0.2,0.8-0.6,1.4-1.2,1.8
			c-0.5,0.3-1.2,0.5-1.9,0.5h-4.1V33.2z"/>
		<path class="st0" d="M125.7,12.5v3.1l-0.3,0.3H122V33l-0.3,0.3h-3l-0.3-0.3V15.8h-3.3l-0.2-0.3v-3.1l0.2-0.3h10.3L125.7,12.5z"/>
		<path class="st0" d="M127.3,15.5c0-0.9,0.3-1.7,0.9-2.4c0.6-0.6,1.4-1,2.4-1h4.1c1.4,0,2.3,0.6,2.9,1.7c0.3,0.6,0.4,1.1,0.4,1.7
			v14.3c-0.1,0.9-0.4,1.7-1,2.4c-0.6,0.6-1.4,1-2.4,1h-4.1c-1.4,0-2.4-0.6-2.9-1.7c-0.3-0.5-0.4-1.1-0.4-1.6V15.5H127.3z
			 M133.7,29.6c0.2,0,0.4-0.1,0.5-0.2c0.1-0.2,0.2-0.3,0.2-0.5V16.5l0,0c0-0.5-0.2-0.7-0.7-0.7h-2.1c-0.4,0-0.6,0.1-0.6,0.3
			l-0.1,0.4v12.3c0,0.2,0.1,0.4,0.2,0.5c0.1,0.1,0.3,0.2,0.5,0.2h2.1V29.6z"/>
		<path class="st0" d="M144.7,33.2c-1.1,0-2-0.4-2.7-1.1c-0.7-0.7-1.1-1.6-1.1-2.8V12.5l0.3-0.3h3.1l0.3,0.3v16.4c0,0.1,0,0.1,0,0.2
			s0,0.1,0,0.1v0.1c0,0,0,0.1,0.1,0.1c0,0,0.1,0,0.1,0.1c0,0,0.1,0,0.1,0.1c0.1,0,0.1,0,0.1,0h0.1h0.1h2.1c0.2,0,0.3-0.1,0.5-0.2
			c0.1-0.1,0.2-0.3,0.2-0.5V12.5l0.3-0.3h3.1l0.2,0.3v16.9c0,1.6-0.7,2.7-1.9,3.4c-0.6,0.3-1.3,0.5-1.9,0.5L144.7,33.2L144.7,33.2z"
			/>
		<path class="st0" d="M165.2,16v5.3c0,0.7-0.2,1.5-0.7,2.1c-0.5,0.7-1.1,1.1-1.8,1.3l2.5,8l-0.2,0.4h-3.1l-0.3-0.2l-2.5-8H158v7.9
			l-0.3,0.3h-3.1l-0.3-0.3V12.5l0.3-0.3h6.6c0.8,0,1.5,0.2,2.1,0.5c0.6,0.4,1,0.8,1.3,1.4C165,14.7,165.2,15.4,165.2,16z
			 M160.9,21.4c0.2,0,0.4-0.1,0.5-0.2c0.1-0.2,0.2-0.3,0.2-0.5v-4.2c0-0.2-0.1-0.3-0.2-0.5c-0.1-0.1-0.3-0.2-0.5-0.2h-2.8v5.6H160.9
			z"/>
		<path class="st0" d="M171.5,12.4v20.5l-0.3,0.3h-3.1l-0.3-0.3V12.4l0.3-0.3h3.1L171.5,12.4z"/>
		<path class="st0" d="M185.2,12.4v20.5l-0.2,0.3h-3.1l-0.3-0.2L178,22.2v10.7l-0.3,0.3h-3.1l-0.3-0.3V12.4l0.3-0.3h3.1l0.3,0.2
			l3.6,10.8V12.4l0.3-0.3h3.1L185.2,12.4z"/>
		<path class="st0" d="M188,15.5c0-0.9,0.3-1.7,0.9-2.4c0.6-0.6,1.4-1,2.4-1h4.1c1.4,0,2.3,0.6,2.9,1.7c0.3,0.6,0.4,1.1,0.4,1.7v3.1
			l-0.3,0.2h-3.1l-0.3-0.2v-2.1l0,0c0-0.5-0.2-0.7-0.7-0.7h-2.1c-0.4,0-0.6,0.1-0.6,0.3l-0.1,0.4v12.3c0,0.2,0.1,0.4,0.2,0.5
			c0.1,0.1,0.3,0.2,0.5,0.2h2.1c0.3,0,0.5-0.1,0.6-0.4l0.1-0.4V26h-0.7l-0.3-0.3v-3.1l0.3-0.3h4.1l0.3,0.3v7.2
			c-0.1,0.9-0.4,1.7-1,2.4c-0.6,0.6-1.4,1-2.4,1h-4.1c-1.4,0-2.4-0.6-2.9-1.7c-0.3-0.5-0.4-1.1-0.4-1.6V15.5H188z"/>
	</g>
	<g>
		<polygon class="st0" points="27.1,19.9 27.1,13.4 17.7,4.1 4.7,4.1 17.3,16.7 6.6,27.4 6.6,33.9 14,41.3 27,41.3 16.4,30.6 		"/>
		<polygon class="st0" points="47.6,19.9 47.6,13.4 38.2,4.1 25.2,4.1 37.8,16.7 27.1,27.4 27.1,33.9 34.5,41.3 47.5,41.3 
			36.9,30.6 		"/>
	</g>
</g>
</svg>
