<svg xmlns="http://www.w3.org/2000/svg" viewBox="0 0 317 61" width="317" height="61">
	<defs>
		<clipPath clipPathUnits="userSpaceOnUse" id="cp1">
			<path d="M-739 -409L452 -409L452 753L-739 753Z" />
		</clipPath>
	</defs>
	<style>
		tspan { white-space:pre }
		.shp0 { fill: #ffffff } 
	</style>
	<g id="Page 1" clip-path="url(#cp1)">
		<path id="Path 8" fill-rule="evenodd" class="shp0" d="M111.82 19.83L111.82 28.48C111.82 29.69 111.42 30.86 110.62 31.97C109.82 33.08 108.85 33.79 107.71 34.11L111.77 47.18L111.46 47.76L106.45 47.76L105.99 47.44L101.92 34.42L100.2 34.42L100.2 47.34L99.79 47.76L94.73 47.76L94.32 47.34L94.32 13.99L94.73 13.58L105.57 13.58C106.89 13.58 108.04 13.87 109.01 14.46C109.98 15.05 110.68 15.8 111.09 16.7C111.58 17.68 111.82 18.72 111.82 19.83ZM104.79 28.58C105.13 28.58 105.42 28.45 105.65 28.19C105.87 27.93 105.99 27.64 105.99 27.33L105.99 20.56C105.99 20.28 105.87 20.02 105.65 19.78C105.42 19.53 105.13 19.41 104.79 19.41L100.2 19.41L100.2 28.58L104.79 28.58ZM128.24 13.78L134.91 47.13L134.54 47.65L129.54 47.65L129.07 47.29L127.61 39.31L121.41 39.31L119.9 47.29L119.49 47.65L114.54 47.65L114.12 47.13L120.79 13.78L121.2 13.47L127.87 13.47L128.24 13.78ZM124.49 22.8L122.51 33.48L126.47 33.48L124.49 22.8ZM155.03 13.94L155.03 47.29L154.66 47.7L149.66 47.7L149.19 47.44L143.36 29.89L143.36 47.29L142.94 47.7L137.89 47.7L137.47 47.29L137.47 13.94L137.89 13.53L142.94 13.53L143.36 13.84L149.19 31.4L149.19 13.94L149.66 13.53L154.66 13.53L155.03 13.94ZM164.88 47.76C163.24 47.76 161.93 47.22 160.94 46.14C159.95 45.06 159.46 43.8 159.46 42.34L159.46 39L159.87 38.59L164.88 38.59L165.34 39L165.34 40.77C165.34 41.09 165.46 41.36 165.68 41.58C165.91 41.81 166.2 41.92 166.54 41.92L169.93 41.92C170.28 41.92 170.56 41.79 170.79 41.53C171.02 41.27 171.13 40.98 171.13 40.67L171.13 34.78L171.08 34.73C171.08 33.97 170.69 33.58 169.93 33.58L164.88 33.58C162.65 33.58 161.05 32.66 160.08 30.82C159.67 29.99 159.46 29.1 159.46 28.17L159.46 19C159.46 17.47 159.94 16.18 160.92 15.14C161.89 14.1 163.21 13.58 164.88 13.58L171.55 13.58C173.77 13.58 175.37 14.48 176.34 16.29C176.79 17.19 177.02 18.09 177.02 19L177.02 22.33L176.6 22.75L171.55 22.75L171.13 22.33L171.13 20.61L171.08 20.56C171.08 19.79 170.69 19.41 169.93 19.41L166.54 19.41C165.95 19.41 165.61 19.59 165.5 19.93L165.34 20.66L165.34 26.6C165.34 26.88 165.47 27.14 165.71 27.38C165.95 27.63 166.23 27.75 166.54 27.75L171.55 27.75C173.77 27.75 175.37 28.65 176.34 30.46C176.79 31.36 177.02 32.26 177.02 33.17L177.02 42.34C176.98 42.82 176.88 43.38 176.7 44.01C176.36 45.29 175.7 46.26 174.72 46.92C173.89 47.48 172.83 47.76 171.55 47.76L164.88 47.76ZM197.44 13.99L197.44 19L197.03 19.41L191.56 19.41L191.56 47.34L191.14 47.76L186.19 47.76L185.72 47.34L185.72 19.41L180.3 19.41L179.94 19L179.94 13.99L180.3 13.58L197.03 13.58L197.44 13.99ZM200.16 19C200.16 17.47 200.64 16.18 201.62 15.14C202.59 14.1 203.91 13.58 205.58 13.58L212.25 13.58C214.47 13.58 216.07 14.48 217.04 16.29C217.49 17.19 217.72 18.09 217.72 19L217.72 42.34C217.61 43.87 217.08 45.15 216.13 46.19C215.17 47.23 213.88 47.76 212.25 47.76L205.58 47.76C203.32 47.76 201.72 46.84 200.78 44.99C200.37 44.16 200.16 43.28 200.16 42.34L200.16 19ZM210.63 41.92C210.98 41.92 211.26 41.79 211.49 41.53C211.72 41.27 211.83 40.98 211.83 40.67L211.83 20.61L211.78 20.56C211.78 19.79 211.39 19.41 210.63 19.41L207.24 19.41C206.65 19.41 206.31 19.59 206.2 19.93L206.05 20.66L206.05 40.77C206.05 41.09 206.16 41.36 206.38 41.58C206.61 41.81 206.9 41.92 207.24 41.92L210.63 41.92ZM228.5 47.76C226.73 47.76 225.24 47.18 224.02 46.04C222.8 44.89 222.2 43.38 222.2 41.5L222.2 13.99L222.61 13.58L227.62 13.58L228.09 13.99L228.09 40.67C228.09 40.77 228.09 40.87 228.11 40.96C228.13 41.04 228.15 41.12 228.19 41.19C228.22 41.26 228.25 41.32 228.27 41.37C228.28 41.42 228.33 41.47 228.4 41.5C228.47 41.54 228.52 41.57 228.55 41.61C228.59 41.64 228.65 41.68 228.74 41.71C228.82 41.75 228.88 41.77 228.92 41.79C228.95 41.81 229.02 41.84 229.13 41.87C229.23 41.9 229.3 41.92 229.34 41.92L232.78 41.92C233.05 41.92 233.31 41.8 233.56 41.55C233.8 41.31 233.92 41.02 233.92 40.67L233.92 13.99L234.34 13.58L239.39 13.58L239.76 13.99L239.76 41.5C239.76 44.07 238.7 45.9 236.58 46.97C235.54 47.5 234.51 47.76 233.5 47.76L228.5 47.76ZM261.9 19.83L261.9 28.48C261.9 29.69 261.5 30.86 260.7 31.97C259.9 33.08 258.93 33.79 257.79 34.11L261.85 47.18L261.54 47.76L256.53 47.76L256.07 47.44L252 34.42L250.28 34.42L250.28 47.34L249.87 47.76L244.81 47.76L244.4 47.34L244.4 13.99L244.81 13.58L255.65 13.58C256.97 13.58 258.12 13.87 259.09 14.46C260.06 15.05 260.76 15.8 261.17 16.7C261.66 17.68 261.9 18.72 261.9 19.83ZM254.87 28.58C255.21 28.58 255.5 28.45 255.73 28.19C255.95 27.93 256.07 27.64 256.07 27.33L256.07 20.56C256.07 20.28 255.95 20.02 255.73 19.78C255.5 19.53 255.21 19.41 254.87 19.41L250.28 19.41L250.28 28.58L254.87 28.58ZM272.22 13.94L272.22 47.29L271.8 47.7L266.75 47.7L266.33 47.29L266.33 13.94L266.75 13.53L271.8 13.53L272.22 13.94ZM294.52 13.94L294.52 47.29L294.15 47.7L289.15 47.7L288.68 47.44L282.85 29.89L282.85 47.29L282.43 47.7L277.37 47.7L276.96 47.29L276.96 13.94L277.37 13.53L282.43 13.53L282.85 13.84L288.68 31.4L288.68 13.94L289.15 13.53L294.15 13.53L294.52 13.94ZM299.1 19C299.1 17.47 299.59 16.18 300.56 15.14C301.53 14.1 302.85 13.58 304.52 13.58L311.19 13.58C313.41 13.58 315.01 14.48 315.98 16.29C316.44 17.19 316.66 18.09 316.66 19L316.66 24L316.24 24.36L311.19 24.36L310.77 24L310.77 20.61L310.72 20.56C310.72 19.8 310.34 19.41 309.57 19.41L306.19 19.41C305.6 19.41 305.25 19.59 305.15 19.93L304.99 20.66L304.99 40.78C304.99 41.09 305.1 41.36 305.33 41.58C305.55 41.81 305.84 41.92 306.19 41.92L309.57 41.92C310.1 41.92 310.43 41.73 310.56 41.35L310.77 40.67L310.77 36.09L309.57 36.09L309.11 35.67L309.11 30.67L309.57 30.25L316.24 30.25L316.66 30.67L316.66 42.34C316.56 43.87 316.03 45.15 315.07 46.19C314.12 47.24 312.82 47.76 311.19 47.76L304.52 47.76C302.26 47.76 300.67 46.84 299.73 45C299.31 44.16 299.1 43.28 299.1 42.34L299.1 19ZM19.28 43.58L36.65 60.95L15.45 60.95L3.39 48.88L3.39 38.28L20.83 20.83L0.26 0.28L21.47 0.28L36.73 15.53L36.73 26.13L19.28 43.58ZM52.68 43.58L70.05 60.95L48.85 60.95L36.79 48.88L36.79 38.28L54.23 20.83L33.67 0.28L54.86 0.28L70.13 15.53L70.13 26.13L52.68 43.58Z" />
	</g>
</svg>