<svg id="Group_519099" data-name="Group 519099" xmlns="http://www.w3.org/2000/svg" width="37.429" height="23.696" viewBox="0 0 37.429 23.696">
  <path id="Path_228" data-name="Path 228" d="M32.5,27.96H4.929A4.936,4.936,0,0,0,0,32.889v7.553a.749.749,0,0,0,1.5,0V37.549H35.931v2.893a.749.749,0,0,0,1.5,0V32.889A4.936,4.936,0,0,0,32.5,27.96Zm-31,4.929a3.437,3.437,0,0,1,3.432-3.432H32.5a3.437,3.437,0,0,1,3.432,3.432v3.163H1.5Z" transform="translate(0 -17.495)" fill="gray"/>
  <path id="Path_229" data-name="Path 229" d="M10.059,9.589a.751.751,0,0,0,.749-.749V4.929A3.437,3.437,0,0,1,14.239,1.5h20.6a3.437,3.437,0,0,1,3.432,3.432V8.841a.749.749,0,1,0,1.5,0V4.929A4.931,4.931,0,0,0,34.836,0H14.243A4.937,4.937,0,0,0,9.31,4.929V8.841A.748.748,0,0,0,10.059,9.589Z" transform="translate(-5.825)" fill="gray"/>
  <path id="Path_230" data-name="Path 230" d="M29.117,15.271a.751.751,0,0,0,.749-.749V9.829a.751.751,0,0,0-.749-.749H19.749A.751.751,0,0,0,19,9.829v4.694a.749.749,0,1,0,1.5,0V10.577h7.871v3.945A.746.746,0,0,0,29.117,15.271Z" transform="translate(-11.889 -5.681)" fill="gray"/>
  <path id="Path_231" data-name="Path 231" d="M62.637,15.271a.751.751,0,0,0,.749-.749V9.829a.751.751,0,0,0-.749-.749H53.269a.751.751,0,0,0-.749.749v4.694a.749.749,0,0,0,1.5,0V10.577h7.871v3.945A.748.748,0,0,0,62.637,15.271Z" transform="translate(-32.863 -5.681)" fill="gray"/>
</svg>
